<svg width="100" height="100" viewBox="0 0 100 100" fill="none" xmlns="http://www.w3.org/2000/svg">
<path d="M49.9201 85.64C52.2644 86.3703 54.6615 86.9186 57.0901 87.28C61.7601 87.98 62.4401 84.69 66.3201 76.74C66.5281 76.3732 66.6589 75.9678 66.7043 75.5486C66.7497 75.1294 66.7089 74.7054 66.5843 74.3026C66.4597 73.8998 66.254 73.5267 65.9799 73.2064C65.7057 72.8861 65.3689 72.6253 64.9901 72.44L56.1601 67.29C55.4489 66.973 54.6423 66.945 53.9108 67.2118C53.1793 67.4787 52.5802 68.0195 52.2401 68.72C52.2401 68.72 51.3201 70.77 50.9401 71.42C50.4601 72.25 49.5301 73.49 47.2501 72.42C45.6641 71.7237 44.1557 70.8622 42.7501 69.85C40.3382 68.1539 38.0765 66.2536 35.9901 64.17V64.17C33.4797 61.7054 31.2648 58.9569 29.3901 55.98" stroke="#939598" stroke-width="3" stroke-linecap="round" stroke-linejoin="round"/>
<path d="M42.23 82.5102C36.9862 79.8192 32.2032 76.3122 28.06 72.1202H28.01C19.67 63.7702 14.44 53.7502 12.85 43.1202C12.22 38.8502 15.01 37.8202 21.52 34.7902L23.4 33.9002C23.7671 33.6936 24.1724 33.5641 24.5913 33.5194C25.0101 33.4748 25.4336 33.5159 25.836 33.6404C26.2384 33.7648 26.6113 33.97 26.9317 34.2433C27.2522 34.5167 27.5136 34.8525 27.7 35.2302L32.85 44.0402C33.1298 44.7459 33.1317 45.5315 32.8551 46.2386C32.5786 46.9456 32.0443 47.5215 31.36 47.8502L27.97 49.4802C27.6419 49.6562 27.382 49.9368 27.2316 50.2774C27.0812 50.618 27.049 50.9991 27.14 51.3602" stroke="#939598" stroke-width="3" stroke-linecap="round" stroke-linejoin="round"/>
<path d="M26.34 44.1601L21.03 35.0601" stroke="#939598" stroke-width="3" stroke-linecap="round" stroke-linejoin="round"/>
<path d="M51.49 70.3801L65.46 78.5301" stroke="#939598" stroke-width="3" stroke-linecap="round" stroke-linejoin="round"/>
<path d="M87.2701 35.32C87.2699 39.0428 86.3538 42.7084 84.6024 45.9934C82.851 49.2785 80.3182 52.0822 77.2274 54.1573C74.1365 56.2323 70.5826 57.515 66.879 57.8922C63.1754 58.2693 59.4358 57.7294 55.9901 56.32C53.3601 55.24 41.9001 59.9201 41.9001 59.9201C41.9001 59.9201 46.1401 48.6901 45.0701 46.9201C43.287 43.9169 42.2212 40.5426 41.9557 37.06C41.6903 33.5774 42.2325 30.0806 43.5399 26.8419C44.8474 23.6031 46.8849 20.71 49.4937 18.3877C52.1025 16.0654 55.2122 14.3768 58.5806 13.4533C61.949 12.5298 65.4851 12.3964 68.9135 13.0634C72.3419 13.7304 75.57 15.1799 78.3464 17.299C81.1228 19.418 83.3725 22.1494 84.9204 25.2803C86.4682 28.4113 87.2723 31.8574 87.2701 35.35V35.32Z" stroke="#939598" stroke-width="3" stroke-linecap="round" stroke-linejoin="round"/>
<path d="M53.5802 31.2301C53.5775 30.9494 53.6435 30.6724 53.7725 30.4231C53.9015 30.1739 54.0895 29.96 54.3202 29.8001L58.0002 26.8001C58.4102 26.4701 58.7602 26.1701 59.0002 25.9001C59.2575 25.6736 59.4919 25.4224 59.7002 25.1501C59.863 24.9383 59.9912 24.702 60.0802 24.4501C60.162 24.2051 60.2026 23.9483 60.2002 23.6901C60.216 23.4578 60.1813 23.2249 60.0984 23.0074C60.0155 22.7899 59.8865 22.5929 59.7202 22.4301C59.3671 22.1381 58.9178 21.9883 58.4602 22.0101C58.0796 22.0043 57.704 22.0973 57.3702 22.2801C56.9909 22.5085 56.6528 22.7993 56.3702 23.1401C56.2554 23.2503 56.1237 23.3415 55.9802 23.4101C55.8047 23.5022 55.6082 23.547 55.4102 23.5401C55.0671 23.5401 54.738 23.4045 54.4944 23.1628C54.2509 22.9212 54.1128 22.5931 54.1102 22.2501C54.1058 21.9209 54.2274 21.6025 54.4502 21.3601C54.9378 20.7783 55.536 20.2991 56.2102 19.9501C56.9796 19.5928 57.8223 19.4216 58.6702 19.4501C59.2887 19.4448 59.9039 19.5428 60.4902 19.7401C61.0074 19.9131 61.4863 20.1848 61.9002 20.5401C62.2893 20.8909 62.5995 21.3204 62.8102 21.8001C63.0264 22.3231 63.1352 22.8842 63.1302 23.4501C63.1379 23.9415 63.067 24.431 62.9202 24.9001C62.7789 25.3325 62.5659 25.7382 62.2902 26.1001C61.9795 26.5178 61.6203 26.8971 61.2202 27.2301C60.7902 27.6101 60.2902 28.0201 59.7202 28.4701L57.6102 30.1001H62.1602C62.4043 30.1008 62.6428 30.1735 62.8457 30.3092C63.0487 30.4449 63.2071 30.6375 63.301 30.8628C63.395 31.0881 63.4204 31.3361 63.374 31.5758C63.3276 31.8155 63.2114 32.0361 63.0402 32.2101C62.9242 32.3241 62.7866 32.4138 62.6355 32.4739C62.4844 32.534 62.3228 32.5633 62.1602 32.5601H55.1602C54.7641 32.5736 54.3756 32.45 54.0602 32.2101C53.916 32.088 53.8021 31.9342 53.7274 31.7607C53.6528 31.5872 53.6195 31.3987 53.6302 31.2101" fill="#939598"/>
<path d="M70.9201 29.78H65.5901C65.4073 29.7872 65.2248 29.7582 65.0532 29.6947C64.8816 29.6312 64.7242 29.5345 64.5901 29.41C64.4571 29.2929 64.3514 29.148 64.2806 28.9856C64.2098 28.8232 64.1754 28.6472 64.1801 28.47C64.1768 28.1865 64.2384 27.906 64.3601 27.65C64.4938 27.3849 64.6583 27.1366 64.8501 26.91L70.4801 20.38C70.7031 20.1028 70.966 19.8601 71.2601 19.66C71.56 19.4764 71.9091 19.3892 72.2601 19.41C72.4447 19.4026 72.6288 19.4334 72.8009 19.5005C72.973 19.5676 73.1293 19.6696 73.2601 19.8C73.3933 19.9292 73.4978 20.0851 73.5667 20.2574C73.6357 20.4297 73.6675 20.6146 73.6601 20.8V27.5H74.3401C74.4943 27.497 74.6475 27.5257 74.7903 27.5841C74.933 27.6426 75.0623 27.7297 75.1701 27.84C75.279 27.9489 75.3652 28.0783 75.4236 28.2208C75.4819 28.3633 75.5114 28.516 75.5101 28.67C75.5115 28.8211 75.4821 28.9708 75.4237 29.1101C75.3652 29.2494 75.2789 29.3752 75.1701 29.48C75.0604 29.5871 74.9306 29.6715 74.7881 29.7281C74.6457 29.7847 74.4934 29.8126 74.3401 29.81H73.6601V31.37C73.6681 31.5555 73.6366 31.7406 73.5676 31.913C73.4987 32.0854 73.3938 32.2412 73.2601 32.37C73.1293 32.5004 72.973 32.6024 72.8009 32.6695C72.6288 32.7366 72.4447 32.7674 72.2601 32.76C72.0753 32.7693 71.8907 32.7393 71.7183 32.6721C71.546 32.6049 71.3898 32.5019 71.2601 32.37C71.1297 32.2392 71.0277 32.0829 70.9606 31.9108C70.8935 31.7387 70.8627 31.5546 70.8701 31.37L70.9201 29.78ZM70.9201 27.47V23.47L67.4801 27.47H70.9201Z" fill="#939598"/>
<path d="M50.5501 38.46C50.6276 38.398 50.7157 38.3506 50.8101 38.32C50.8874 38.2858 50.9678 38.259 51.0501 38.24L79.5801 32.43C79.7816 32.3683 79.9974 32.3719 80.1967 32.4401C80.3961 32.5084 80.5687 32.6378 80.6901 32.81C80.7777 32.9223 80.8423 33.0508 80.88 33.1881C80.9178 33.3254 80.928 33.4688 80.9101 33.61C80.8983 33.749 80.8574 33.884 80.7903 34.0063C80.7231 34.1286 80.6311 34.2354 80.5201 34.32C80.4391 34.3822 80.3477 34.4296 80.2501 34.46L80.0101 34.54L51.4901 40.35C51.2887 40.4117 51.0729 40.4082 50.8736 40.3399C50.6742 40.2717 50.5015 40.1422 50.3801 39.97C50.2884 39.8602 50.2212 39.7319 50.1833 39.5939C50.1453 39.4559 50.1374 39.3114 50.1601 39.17C50.172 39.031 50.2129 38.896 50.28 38.7738C50.3472 38.6515 50.4392 38.5446 50.5501 38.46Z" fill="#939598"/>
<path d="M62.0201 51.7702C62.0227 51.621 62.0462 51.4728 62.0901 51.3302C62.1369 51.1737 62.2006 51.0228 62.2801 50.8802L67.0901 42.4402H62.0901C61.9266 42.4439 61.764 42.4138 61.6126 42.3519C61.4612 42.2899 61.3242 42.1975 61.2101 42.0802C61.0921 41.9688 60.999 41.8337 60.937 41.6837C60.8749 41.5338 60.8453 41.3724 60.8501 41.2102C60.8482 41.0469 60.879 40.8848 60.9409 40.7337C61.0027 40.5825 61.0943 40.4453 61.2101 40.3302C61.3242 40.2129 61.4612 40.1204 61.6126 40.0585C61.764 39.9965 61.9266 39.9665 62.0901 39.9702H69.0901C69.2713 39.9537 69.4539 39.9755 69.6262 40.034C69.7984 40.0926 69.9565 40.1867 70.0901 40.3102C70.2107 40.4338 70.3041 40.5813 70.3644 40.7432C70.4247 40.9051 70.4505 41.0778 70.4401 41.2502C70.4398 41.4845 70.4026 41.7173 70.3301 41.9402C70.2594 42.185 70.1587 42.4202 70.0301 42.6402L64.8301 52.0802C64.6946 52.3757 64.4843 52.6307 64.2201 52.8202C63.9958 52.9719 63.7309 53.0521 63.4601 53.0502C63.0983 53.051 62.7465 52.9313 62.4601 52.7102C62.3157 52.6012 62.2002 52.4586 62.1235 52.2948C62.0468 52.1309 62.0113 51.9509 62.0201 51.7702Z" fill="#939598"/>
</svg>
