<svg width="86" height="78" viewBox="0 0 86 78" fill="none" xmlns="http://www.w3.org/2000/svg">
<g clip-path="url(#clip0_2767_215535)">
<path d="M43.0002 31.4463V53.2214" stroke="#ED1C24" stroke-width="4" stroke-linecap="round" stroke-linejoin="round"/>
<path d="M47.2857 64.3694C47.2914 65.2182 47.0449 66.0496 46.5775 66.7581C46.1101 67.4667 45.4428 68.0204 44.6603 68.3493C43.8777 68.6781 43.0151 68.7671 42.1819 68.605C41.3487 68.4429 40.5824 68.0371 39.9802 67.4389C39.3779 66.8407 38.9669 66.0772 38.7992 65.2451C38.6315 64.413 38.7147 63.5498 39.0382 62.7651C39.3616 61.9803 39.9109 61.3093 40.6162 60.8371C41.3216 60.3649 42.1512 60.1128 43 60.1128C44.1316 60.1128 45.2174 60.5603 46.0202 61.3577C46.8231 62.1552 47.278 63.2378 47.2857 64.3694Z" fill="#ED1C24"/>
<path d="M72.7382 45.4038L82.6992 62.7775C83.4243 64.0393 83.8054 65.4694 83.8043 66.9247C83.8032 68.38 83.4199 69.8095 82.6928 71.0702C81.9657 72.3309 80.9202 73.3786 79.6611 74.1084C78.402 74.8382 76.9734 75.2245 75.5181 75.2287H51.687" stroke="#ED1C24" stroke-width="4" stroke-linecap="round" stroke-linejoin="round"/>
<path d="M34.3134 75.1126H10.4534C8.99814 75.1083 7.56955 74.722 6.31043 73.9922C5.05132 73.2625 4.00581 72.2148 3.27872 70.9542C2.55164 69.6935 2.16837 68.2639 2.16724 66.8086C2.16611 65.3533 2.54723 63.9232 3.27236 62.6614L35.8191 6.45737C36.5364 5.16648 37.5858 4.09086 38.8586 3.34198C40.1314 2.5931 41.5814 2.19824 43.0582 2.19824C44.535 2.19824 45.9849 2.5931 47.2578 3.34198C48.5306 4.09086 49.58 5.16648 50.2972 6.45737L64.7754 31.5914" stroke="#ED1C24" stroke-width="4" stroke-linecap="round" stroke-linejoin="round"/>
</g>
<defs>
<clipPath id="clip0_2767_215535">
<rect width="86" height="77.2842" fill="white"/>
</clipPath>
</defs>
</svg>
