<svg width="64" height="64" viewBox="0 0 64 64" fill="none" xmlns="http://www.w3.org/2000/svg">
<path d="M62 20.963C61.9987 23.0902 61.4522 25.1844 60.4087 27.0608C59.3652 28.9372 57.8568 30.5381 56.0165 31.7222C54.1763 32.9063 52.0608 33.6373 49.8568 33.8505C47.6528 34.0637 45.428 33.7527 43.3788 32.9449C41.7994 32.3306 35.0079 35 35.0079 35C35.0079 35 37.5192 28.5844 36.8874 27.5606C35.8284 25.8462 35.1957 23.9202 35.0387 21.9326C34.8816 19.945 35.2044 17.9494 35.9818 16.1012C36.7593 14.2529 37.9705 12.602 39.5212 11.2768C41.0718 9.9516 42.92 8.98797 44.9219 8.46093C46.9237 7.93389 49.0253 7.85768 51.0629 8.23818C53.1005 8.61869 55.0191 9.44566 56.6694 10.6547C58.3198 11.8638 59.6572 13.4223 60.5777 15.2089C61.4981 16.9956 61.9768 18.9621 61.9763 20.9554L62 20.963Z" stroke="#EB6719" stroke-width="2.4" stroke-linecap="round" stroke-linejoin="round"/>
<path d="M48 39C52.8757 38.1692 56 36.8906 56 35.4675V32" stroke="#EB6719" stroke-width="2.4" stroke-linecap="round" stroke-linejoin="round"/>
<path d="M48 46C52.8757 45.1458 56 43.8386 56 42.368V35" stroke="#EB6719" stroke-width="2.4" stroke-linecap="round" stroke-linejoin="round"/>
<path d="M3 53.6712L10.0048 56.8888C12.4409 58.0122 18.4494 50.4994 23.4073 40.0747C28.3651 29.65 30.4121 20.3411 27.9682 19.2176L20.9634 16" stroke="#EB6719" stroke-width="2.4" stroke-linecap="round" stroke-linejoin="round"/>
<path d="M27 32C29.5046 32 32.2808 32 35.1852 32H36" stroke="#EB6719" stroke-width="2.4" stroke-linecap="round" stroke-linejoin="round"/>
<path d="M18.7464 31.7611C18.0705 33.4553 17.3014 35.2261 16.4158 37.0276C11.467 47.4534 5.46938 54.9967 3.02995 53.8928C0.590508 52.7889 2.63372 43.3981 7.58252 32.9724C12.5313 22.5466 18.5289 15.0033 20.9684 16.1072C22.3435 16.7435 22.2968 19.9939 21.1082 24.5781" stroke="#EB6719" stroke-width="2.4" stroke-linecap="round" stroke-linejoin="round"/>
<path d="M24 39C27.8084 39.6811 31.6501 40.0151 35.4958 39.9995C37.0652 39.9995 38.5483 39.9995 40 39.8695" stroke="#EB6719" stroke-width="2.4" stroke-linecap="round" stroke-linejoin="round"/>
<path d="M21 46C25.8017 46.7049 30.6929 47.0389 35.5918 46.9964C37.1277 46.9964 38.5792 46.9686 40 46.9185" stroke="#EB6719" stroke-width="2.4" stroke-linecap="round" stroke-linejoin="round"/>
<path d="M17 51.5481C20.4963 53.0296 27.3594 54 35.2812 54C46.707 54 56 51.9185 56 49.3481V42" stroke="#EB6719" stroke-width="2.4" stroke-linecap="round" stroke-linejoin="round"/>
<path d="M29 23C30.8541 23 32.8195 23 34.8591 23H35" stroke="#EB6719" stroke-width="2.4" stroke-linecap="round" stroke-linejoin="round"/>
<circle cx="52" cy="25" r="2.8" stroke="#EB6719" stroke-width="2.4"/>
<path d="M41.9436 14.4062C41.3976 14.8125 40.7153 16.0312 41.1251 17.25C41.7859 19.215 44.4007 19.6875 45.6292 18.0625C46.8576 16.4375 46.0779 14.4062 44.8494 14H53L41.9438 27" stroke="#EB6719" stroke-width="2.4" stroke-linecap="round" stroke-linejoin="round"/>
</svg>
