<svg width="84" height="84" viewBox="0 0 84 84" fill="none" xmlns="http://www.w3.org/2000/svg">
<path d="M57.414 12.2386H48.048C45.7284 12.2386 43.848 14.1191 43.848 16.4386V18.0347C43.848 20.3542 45.7284 22.2347 48.048 22.2347H57.414C59.7336 22.2347 61.614 20.3542 61.614 18.0347V16.4386C61.614 14.1191 59.7336 12.2386 57.414 12.2386Z" stroke="#EB6719" stroke-width="2.4" stroke-linecap="round" stroke-linejoin="round"/>
<path d="M35.9519 12.2386H26.5859C24.2663 12.2386 22.3859 14.1191 22.3859 16.4386V18.0347C22.3859 20.3542 24.2663 22.2347 26.5859 22.2347H35.9519C38.2715 22.2347 40.1519 20.3542 40.1519 18.0347V16.4386C40.1519 14.1191 38.2715 12.2386 35.9519 12.2386Z" stroke="#EB6719" stroke-width="2.4" stroke-linecap="round" stroke-linejoin="round"/>
<path d="M29.6183 36.0024H25.3427C24.5547 36.0001 23.7997 35.6861 23.2425 35.129C22.6853 34.5718 22.3713 33.8167 22.3691 33.0288V28.98C22.3713 28.192 22.6853 27.4369 23.2425 26.8798C23.7997 26.3226 24.5547 26.0086 25.3427 26.0064H58.6235C59.4115 26.0086 60.1665 26.3226 60.7237 26.8798C61.2809 27.4369 61.5949 28.192 61.5971 28.98V33.0288C61.5949 33.8167 61.2809 34.5718 60.7237 35.129C60.1665 35.6861 59.4115 36.0001 58.6235 36.0024H46.8635" stroke="#EB6719" stroke-width="2.4" stroke-linecap="round" stroke-linejoin="round"/>
<path d="M56.9184 60.7823L57.2712 53.8019V48.1235C57.2671 47.307 56.9443 46.5243 56.3716 45.9422C55.7989 45.3602 55.0216 45.0246 54.2052 45.0071H54.1548C53.3465 45.0103 52.5716 45.3299 51.9961 45.8975V45.8975C51.9956 45.479 51.9097 45.0649 51.7436 44.6807C51.5775 44.2964 51.3347 43.9502 51.0301 43.6631C50.4489 43.1209 49.6829 42.8205 48.888 42.8231H48.7368C47.9383 42.8615 47.1856 43.2077 46.6368 43.7892C46.5102 43.2116 46.2183 42.6834 45.7968 42.2687C45.4907 41.9793 45.1286 41.7554 44.7328 41.611C44.337 41.4665 43.9159 41.4045 43.4952 41.4287C42.7418 41.4721 42.0292 41.7852 41.4876 42.3107V34.5575C41.4856 33.7418 41.1647 32.9591 40.5934 32.3768C40.022 31.7945 39.2456 31.4587 38.43 31.4411H38.3796C37.5713 31.4443 36.7963 31.7639 36.2208 32.3315C35.9185 32.6305 35.6783 32.9862 35.514 33.3783C35.3496 33.7705 35.2644 34.1912 35.2632 34.6163V52.5252L33.1968 48.8207C32.8982 48.2898 32.4641 47.8475 31.9387 47.5391C31.4134 47.2307 30.8156 47.0672 30.2064 47.0652C29.458 47.0692 28.7314 47.3175 28.137 47.7724C27.5427 48.2273 27.1131 48.8638 26.9137 49.5852C26.67 50.4593 26.7786 51.3941 27.2161 52.1892" stroke="#EB6719" stroke-width="2.4" stroke-linecap="round" stroke-linejoin="round"/>
<path d="M29.0809 55.818L35.8009 68.796V68.8548C36.3845 69.7565 37.1863 70.4963 38.1319 71.0058C39.0775 71.5154 40.1364 71.7781 41.2105 71.7696H50.1649C51.0455 71.7757 51.918 71.5998 52.7274 71.2529C53.5369 70.9059 54.266 70.3955 54.8689 69.7536C56.0687 68.4463 56.7264 66.7315 56.7085 64.9572" stroke="#EB6719" stroke-width="2.4" stroke-miterlimit="10" stroke-linecap="round"/>
<path d="M51.9877 45.9059V51.9623" stroke="#EB6719" stroke-width="2.4" stroke-miterlimit="10" stroke-linecap="round"/>
<path d="M46.6284 43.7891V51.2315" stroke="#EB6719" stroke-width="2.4" stroke-miterlimit="10" stroke-linecap="round"/>
<path d="M41.4373 42.2941V50.4085" stroke="#EB6719" stroke-width="2.4" stroke-miterlimit="10" stroke-linecap="round"/>
</svg>
