<svg width="24" height="24" viewBox="0 0 24 24" fill="none" xmlns="http://www.w3.org/2000/svg">
<path d="M22.0001 12C22.0001 14.6522 20.9466 17.1957 19.0712 19.0711C17.1958 20.9464 14.6523 22 12.0001 22C9.34796 22 6.80442 20.9464 4.92905 19.0711C3.05369 17.1957 2.00012 14.6522 2.00012 12C2.00012 9.34784 3.05369 6.8043 4.92905 4.92893C6.80442 3.05357 9.34796 2 12.0001 2C14.6523 2 17.1958 3.05357 19.0712 4.92893C20.9466 6.8043 22.0001 9.34784 22.0001 12ZM11.0001 13V16C11.0001 16.2652 11.1055 16.5196 11.293 16.7071C11.4806 16.8946 11.7349 17 12.0001 17C12.2653 17 12.5197 16.8946 12.7072 16.7071C12.8948 16.5196 13.0001 16.2652 13.0001 16V13C13.0001 12.7348 12.8948 12.4804 12.7072 12.2929C12.5197 12.1054 12.2653 12 12.0001 12C11.7349 12 11.4806 12.1054 11.293 12.2929C11.1055 12.4804 11.0001 12.7348 11.0001 13ZM12.0001 7.5C11.6023 7.5 11.2208 7.65804 10.9395 7.93934C10.6582 8.22064 10.5001 8.60218 10.5001 9C10.5001 9.39782 10.6582 9.77936 10.9395 10.0607C11.2208 10.342 11.6023 10.5 12.0001 10.5C12.3979 10.5 12.7795 10.342 13.0608 10.0607C13.3421 9.77936 13.5001 9.39782 13.5001 9C13.5001 8.60218 13.3421 8.22064 13.0608 7.93934C12.7795 7.65804 12.3979 7.5 12.0001 7.5Z" fill="#EB6719"/>
</svg>
