<svg width="55" height="56" viewBox="0 0 55 56" fill="none" xmlns="http://www.w3.org/2000/svg">
<g clip-path="url(#clip0_2:172779)">
<path d="M28.3363 2.7926C25.6587 1.81678 22.7998 1.43943 19.9608 1.68709C17.1217 1.93476 14.3713 2.80142 11.9031 4.22612C9.43494 5.65083 7.30885 7.59898 5.6744 9.93357C4.03994 12.2682 2.93682 14.9325 2.44259 17.7392C1.94836 20.5459 2.07502 23.4267 2.8137 26.1792C3.55237 28.9317 4.88509 31.4889 6.71815 33.671C8.55121 35.8531 10.8401 37.6071 13.4238 38.8097C16.0075 40.0123 18.8233 40.6342 21.6732 40.6317C24.8412 40.6364 27.9621 39.8642 30.7623 38.3826L34.5614 42.1817" stroke="#EB6719" stroke-width="2.22245" stroke-linecap="round" stroke-linejoin="round"/>
<path d="M37.8926 45.5359L45.7856 53.4374C46.5966 54.0457 47.5999 54.341 48.6112 54.2691C49.6225 54.1973 50.574 53.763 51.2909 53.0461C52.0078 52.3292 52.442 51.3778 52.5139 50.3665C52.5858 49.3551 52.2904 48.3519 51.6821 47.5408L37.1597 32.9762C40.1963 28.9882 41.5806 23.9841 41.0254 19.0024C40.4701 14.0208 38.0179 9.44419 34.1777 6.22266" stroke="#EB6719" stroke-width="2.22245" stroke-linecap="round" stroke-linejoin="round"/>
<path d="M33 40.647L39.376 35.1133" stroke="#EB6719" stroke-width="2.22245" stroke-linecap="round" stroke-linejoin="round"/>
<path d="M16.8113 34.4342C19.0245 35.2395 21.4036 35.4794 23.733 35.1321C26.0623 34.7848 28.268 33.8613 30.15 32.4454C32.032 31.0296 33.5306 29.1662 34.5099 27.0244C35.4892 24.8826 35.9181 22.5301 35.7578 20.1805C35.5975 17.8309 34.853 15.5585 33.5918 13.5696C32.3307 11.5806 30.5928 9.93808 28.536 8.79101C26.4791 7.64393 24.1684 7.02865 21.8135 7.00098C19.4586 6.9733 17.134 7.53411 15.0508 8.63252" stroke="#EB6719" stroke-width="2.22245" stroke-linecap="round" stroke-linejoin="round"/>
<path d="M10.3905 12.582C8.1931 15.4711 7.19215 19.0952 7.59523 22.7025C7.99831 26.3099 9.77447 29.6236 12.5553 31.9565" stroke="#EB6719" stroke-width="2.22245" stroke-linecap="round" stroke-linejoin="round"/>
</g>
<defs>
<clipPath id="clip0_2:172779">
<rect width="53.3387" height="55.5625" fill="white" transform="translate(0.873047 0.367188)"/>
</clipPath>
</defs>
</svg>
