<svg width="64" height="64" viewBox="0 0 64 64" fill="none" xmlns="http://www.w3.org/2000/svg">
<path d="M50.3317 47.6676C54.1922 43.1941 56.2076 37.4703 55.9831 31.6176C55.7585 25.765 53.3101 20.2054 49.1176 16.0282C44.9251 11.851 39.2907 9.35722 33.3184 9.03551C27.346 8.71379 21.4663 10.5873 16.8311 14.289C12.1959 17.9907 9.13947 23.2538 8.26058 29.0469C7.38168 34.8401 8.74371 40.7459 12.0798 45.607C15.4159 50.4682 20.4856 53.9344 26.2955 55.3265C32.1054 56.7186 38.2369 55.9362 43.4884 53.1327" stroke="#EB6719" stroke-width="2.4" stroke-miterlimit="10" stroke-linecap="round"/>
<path d="M46 21C44.2802 18.807 42.1364 17.0445 39.7184 15.8354C37.3003 14.6264 34.6662 14 32 14C29.3338 14 26.6997 14.6264 24.2816 15.8354C21.8635 17.0445 19.7198 18.807 18 21" stroke="#EB6719" stroke-width="2.4" stroke-miterlimit="10" stroke-linecap="round"/>
<path d="M46 44C44.2802 46.193 42.1364 47.9555 39.7184 49.1646C37.3003 50.3736 34.6662 51 32 51C29.3338 51 26.6997 50.3736 24.2816 49.1646C21.8635 47.9555 19.7198 46.193 18 44" stroke="#EB6719" stroke-width="2.4" stroke-miterlimit="10" stroke-linecap="round"/>
<circle cx="37.5" cy="38.5" r="3.3" stroke="#EB6719" stroke-width="2.4"/>
<path d="M25.4998 25.5C24.8332 26 24 27.5 24.5004 29C25.3073 31.4185 28.5001 32 30.0001 30C31.5001 28 30.0001 25.5 28.5001 25H39.0001L25.5001 41" stroke="#EB6719" stroke-width="2.4" stroke-linecap="round" stroke-linejoin="round"/>
</svg>
