<svg width="64" height="64" viewBox="0 0 64 64" fill="none" xmlns="http://www.w3.org/2000/svg">
<path d="M47.5759 12.1295C42.5958 8.44374 36.4381 6.70995 30.2665 7.25583C24.0949 7.80171 18.3371 10.5894 14.0813 15.0921C9.82546 19.5948 7.36649 25.5005 7.16912 31.693C6.97175 37.8855 9.04966 43.9358 13.0101 48.7004C16.9706 53.465 22.5392 56.6137 28.6635 57.5514C34.7877 58.4892 41.0434 57.1511 46.2481 53.7899C51.4528 50.4287 55.2459 45.2774 56.9106 39.3096C58.5753 33.3418 57.9961 26.9709 55.2827 21.401" stroke="#EB6719" stroke-width="2.4" stroke-miterlimit="10" stroke-linecap="round"/>
<path d="M13.6289 33.0391C13.6333 34.2233 13.7532 35.4045 13.9871 36.5669C14.8789 41.0343 17.459 45.0188 21.2227 47.741C24.9864 50.4632 29.663 51.7274 34.3379 51.2863C39.0127 50.8451 43.3496 48.7305 46.5003 45.3558C49.6509 41.9811 51.3888 37.5892 51.3739 33.0391" stroke="#EB6719" stroke-width="2.4" stroke-miterlimit="10" stroke-linecap="round"/>
<path d="M29.26 29.8038C27.8767 29.0395 26.7734 27.8079 26.1248 26.3041C25.4763 24.8002 25.3194 23.11 25.6792 21.501C26.039 19.892 26.8947 18.4562 28.1111 17.4209C29.3274 16.3856 30.8348 15.8099 32.3945 15.785C33.9543 15.7601 35.4773 16.2874 36.7225 17.2835C37.9677 18.2795 38.8638 19.6874 39.2691 21.2841C39.6744 22.8809 39.5657 24.5754 38.9601 26.0992C38.3545 27.6231 37.2867 28.8893 35.9257 29.6974" stroke="#EB6719" stroke-width="2.4" stroke-linecap="round" stroke-linejoin="round"/>
<path d="M45.9799 37.3528C45.9096 36.1855 45.3665 35.0879 44.4624 34.2856C43.5582 33.4833 42.3617 33.0372 41.1187 33.0391H38.902C37.834 33.0391 36.7939 33.36 35.9332 33.9548C35.0725 34.5497 34.4363 35.3875 34.1172 36.3462" stroke="#EB6719" stroke-width="2.4" stroke-linecap="round" stroke-linejoin="round"/>
<path d="M19.0195 37.4243C19.0976 36.2376 19.6475 35.1237 20.5574 34.3092C21.4673 33.4946 22.6689 33.0405 23.9179 33.0391H26.1291C27.204 33.0383 28.2511 33.3639 29.1183 33.9685C29.9854 34.5731 30.6273 35.4253 30.9508 36.401L33.0391 42.7449" stroke="#EB6719" stroke-width="2.4" stroke-linecap="round" stroke-linejoin="round"/>
</svg>
