<svg width="64" height="64" viewBox="0 0 64 64" fill="none" xmlns="http://www.w3.org/2000/svg">
<path d="M21 47.6646C22.0111 50.3368 23.7712 52.6812 26.0817 54.4332C27.3225 55.4391 28.8858 55.9932 30.502 56H48.4574C50.0739 55.9945 51.6376 55.4403 52.8777 54.4332C57.0722 51.0567 59 47.1476 59 40.9352C59 34.2371 51.087 23.7004 45.1987 19H33.7608C29.2301 22.8142 25.4574 27.4023 22.6294 32.5372" stroke="#EB6719" stroke-width="2.4" stroke-linecap="round" stroke-linejoin="round"/>
<path d="M44.6997 19L48.7895 12.2734C48.8669 12.2107 48.9268 12.127 48.9625 12.0313C48.9983 11.9356 49.0087 11.8315 48.9926 11.7301C48.9766 11.6287 48.9346 11.5338 48.8712 11.4555C48.8078 11.3772 48.7254 11.3184 48.6328 11.2855L47.2382 10.5774C46.7411 10.3622 46.1906 10.3246 45.6712 10.4703L43.783 11.1043C43.5345 11.1714 43.2755 11.1841 43.0221 11.1416C42.7687 11.0991 42.5263 11.0023 42.31 10.8573L40.1789 9.21066C39.9771 9.07315 39.7417 9 39.5012 9C39.2607 9 39.0253 9.07315 38.8235 9.21066L36.6924 10.8573C36.4761 11.0023 36.2337 11.0991 35.9803 11.1416C35.727 11.1841 35.468 11.1714 35.2194 11.1043L33.3234 10.4703C32.804 10.3246 32.2535 10.3622 31.7564 10.5774L30.3618 11.2855C30.2697 11.3194 30.1881 11.3789 30.1255 11.4576C30.063 11.5364 30.0219 11.6314 30.0067 11.7327C29.9914 11.834 30.0025 11.9378 30.0388 12.033C30.0752 12.1282 30.1353 12.2113 30.213 12.2734L34.3028 19H44.6997Z" stroke="#EB6719" stroke-width="2.4" stroke-linecap="round" stroke-linejoin="round"/>
<path d="M43.9387 33.9068C41.73 31.7446 36.6428 31.0102 35.6564 33.9073C34.6704 36.8035 37.865 37.6897 39.5215 38.23C41.1779 38.7703 44.4908 39.8502 43.9387 42.5518C43.3865 45.2535 37.865 46.3342 34 42.5519" stroke="#EB6719" stroke-width="2.4" stroke-linecap="round" stroke-linejoin="round"/>
<path d="M40 29V31" stroke="#EB6719" stroke-width="2.4" stroke-linecap="round" stroke-linejoin="round"/>
<path d="M40 46V48" stroke="#EB6719" stroke-width="2.4" stroke-linecap="round" stroke-linejoin="round"/>
<path d="M26 33H19" stroke="#EB6719" stroke-width="2.4" stroke-linecap="round" stroke-linejoin="round"/>
<path d="M21 40H12" stroke="#EB6719" stroke-width="2.4" stroke-linecap="round" stroke-linejoin="round"/>
<path d="M26 47H6" stroke="#EB6719" stroke-width="2.4" stroke-linecap="round" stroke-linejoin="round"/>
</svg>
