<svg width="24" height="24" viewBox="0 0 24 24" fill="none" xmlns="http://www.w3.org/2000/svg">
<g clip-path="url(#clip0_2765_16210)">
<path d="M13.875 18.0004H10.125C9.50156 18.0004 9 17.4988 9 16.8754V9.00039H4.88906C4.05469 9.00039 3.6375 7.99258 4.22812 7.40195L11.3578 0.267578C11.7094 -0.0839844 12.2859 -0.0839844 12.6375 0.267578L19.7719 7.40195C20.3625 7.99258 19.9453 9.00039 19.1109 9.00039H15V16.8754C15 17.4988 14.4984 18.0004 13.875 18.0004ZM24 17.6254V22.8754C24 23.4988 23.4984 24.0004 22.875 24.0004H1.125C0.501562 24.0004 0 23.4988 0 22.8754V17.6254C0 17.002 0.501562 16.5004 1.125 16.5004H7.5V16.8754C7.5 18.3238 8.67656 19.5004 10.125 19.5004H13.875C15.3234 19.5004 16.5 18.3238 16.5 16.8754V16.5004H22.875C23.4984 16.5004 24 17.002 24 17.6254ZM18.1875 21.7504C18.1875 21.2348 17.7656 20.8129 17.25 20.8129C16.7344 20.8129 16.3125 21.2348 16.3125 21.7504C16.3125 22.266 16.7344 22.6879 17.25 22.6879C17.7656 22.6879 18.1875 22.266 18.1875 21.7504ZM21.1875 21.7504C21.1875 21.2348 20.7656 20.8129 20.25 20.8129C19.7344 20.8129 19.3125 21.2348 19.3125 21.7504C19.3125 22.266 19.7344 22.6879 20.25 22.6879C20.7656 22.6879 21.1875 22.266 21.1875 21.7504Z" fill="#EB6719"/>
</g>
<defs>
<clipPath id="clip0_2765_16210">
<rect width="24" height="24" fill="white"/>
</clipPath>
</defs>
</svg>
