<svg width="64" height="64" viewBox="0 0 64 64" fill="none" xmlns="http://www.w3.org/2000/svg">
<path d="M19 8H46" stroke="#EB6719" stroke-width="2.4" stroke-linecap="round" stroke-linejoin="round"/>
<path d="M51 57H14.0113C12.1538 56.9936 10.3741 56.2488 9.0606 54.9281C7.7471 53.6074 7.00637 51.818 7 49.9503V8H11.3791" stroke="#EB6719" stroke-width="2.4" stroke-linecap="round" stroke-linejoin="round"/>
<path d="M46 35V52" stroke="#EB6719" stroke-width="2.4" stroke-linecap="round" stroke-linejoin="round"/>
<path d="M46 8V27" stroke="#EB6719" stroke-width="2.4" stroke-linecap="round" stroke-linejoin="round"/>
<path d="M46 51.8106C46.0041 53.1856 46.5318 54.5031 47.4678 55.4754C48.4039 56.4477 49.6723 56.9958 50.9961 57V57C52.3213 56.9979 53.5917 56.4507 54.5294 55.4782C55.4672 54.5057 55.9959 53.187 56 51.8106V16H46" stroke="#EB6719" stroke-width="2.4" stroke-linecap="round" stroke-linejoin="round"/>
<path d="M15 32H38" stroke="#EB6719" stroke-width="2.4" stroke-linecap="round" stroke-linejoin="round"/>
<path d="M15 39H38" stroke="#EB6719" stroke-width="2.4" stroke-linecap="round" stroke-linejoin="round"/>
<path d="M15 46H38" stroke="#EB6719" stroke-width="2.4" stroke-linecap="round" stroke-linejoin="round"/>
<path d="M21.0996 16H16.9004C15.8508 16 15 16.8508 15 17.9004V22.0996C15 23.1492 15.8508 24 16.9004 24H21.0996C22.1492 24 23 23.1492 23 22.0996V17.9004C23 16.8508 22.1492 16 21.0996 16Z" stroke="#EB6719" stroke-width="2.4" stroke-linecap="round" stroke-linejoin="round"/>
</svg>
