<svg width="51" height="56" viewBox="0 0 51 56" fill="none" xmlns="http://www.w3.org/2000/svg">
<g clip-path="url(#clip0_2:172669)">
<path d="M13.0849 23.4467C10.1696 23.4467 7.37371 22.2902 5.31229 20.2315C3.25087 18.1729 2.09277 15.3808 2.09277 12.4694C2.09277 9.55809 3.25087 6.76597 5.31229 4.70734C7.37371 2.6487 10.1696 1.49219 13.0849 1.49219H36.6758" stroke="#EB6719" stroke-width="2.22245" stroke-linecap="round" stroke-linejoin="round"/>
<path d="M36.6748 1.49219H38.8672C41.7825 1.49219 44.5784 2.6487 46.6398 4.70734C48.7012 6.76597 49.8593 9.55809 49.8593 12.4694C49.8593 15.3808 48.7012 18.1729 46.6398 20.2315C44.5784 22.2902 41.7825 23.4467 38.8672 23.4467" stroke="#EB6719" stroke-width="2.22245" stroke-linecap="round" stroke-linejoin="round"/>
<path d="M41.076 43.722L41.4364 36.6588V30.9153C41.4326 30.0889 41.1053 29.2969 40.5245 28.7084C39.9436 28.1199 39.1553 27.7817 38.328 27.766V27.766C37.5072 27.7666 36.7196 28.0899 36.1356 28.6658V28.6658C36.1356 28.2537 36.0538 27.8456 35.895 27.4652C35.7362 27.0848 35.5034 26.7396 35.2102 26.4495C34.9169 26.1595 34.5691 25.9303 34.1866 25.7754C33.8042 25.6204 33.3948 25.5426 32.9821 25.5466H32.832C32.4318 25.5599 32.0383 25.653 31.6747 25.8204C31.3111 25.9878 30.9847 26.2261 30.7146 26.5214C30.533 25.8127 30.1132 25.1877 29.5256 24.751C28.9379 24.3143 28.218 24.0922 27.4861 24.1219C26.7242 24.1572 26.0023 24.4723 25.4588 25.0067V17.1787C25.4551 16.3524 25.1278 15.5603 24.5469 14.9718C23.966 14.3833 23.1777 14.0451 22.3504 14.0295V14.0295C21.9455 14.0251 21.5438 14.1025 21.1697 14.2572C20.7955 14.4118 20.4565 14.6404 20.173 14.9292C19.8666 15.2283 19.6226 15.5851 19.4551 15.9789C19.2876 16.3727 19.1998 16.7958 19.1969 17.2237V35.3242L17.1096 31.5901C16.6581 30.7923 15.9096 30.2047 15.0268 29.9548C14.1439 29.7049 13.198 29.8129 12.3945 30.2554C11.9942 30.4758 11.642 30.7737 11.3584 31.1316C11.0748 31.4895 10.8654 31.9003 10.7426 32.3399C10.498 33.222 10.6113 34.1649 11.058 34.9642" stroke="#EB6719" stroke-width="2.22245" stroke-linecap="round" stroke-linejoin="round"/>
<path d="M12.9053 38.6992L19.7078 51.806C20.2924 52.7283 21.1021 53.4874 22.0607 54.0119C23.0194 54.5365 24.0957 54.8095 25.1888 54.8052H34.1987C35.0896 54.8082 35.9717 54.6288 36.7904 54.278C37.6092 53.9272 38.3472 53.4125 38.959 52.7657C40.1738 51.4463 40.8396 49.7142 40.821 47.9219" stroke="#EB6719" stroke-width="2.22245" stroke-miterlimit="10" stroke-linecap="round"/>
<path d="M36.0908 28.6641V34.7968" stroke="#EB6719" stroke-width="2.22245" stroke-miterlimit="10" stroke-linecap="round"/>
<path d="M30.6689 26.5352V34.0474" stroke="#EB6719" stroke-width="2.22245" stroke-miterlimit="10" stroke-linecap="round"/>
<path d="M25.4131 25.0215V33.2235" stroke="#EB6719" stroke-width="2.22245" stroke-miterlimit="10" stroke-linecap="round"/>
</g>
<defs>
<clipPath id="clip0_2:172669">
<rect width="50.005" height="55.5611" fill="white" transform="translate(0.979492 0.367188)"/>
</clipPath>
</defs>
</svg>
