<svg width="71" height="56" viewBox="0 0 71 56" fill="none" xmlns="http://www.w3.org/2000/svg">
<g clip-path="url(#clip0_2:172508)">
<path d="M25.8069 18.5859H16.5781" stroke="#EB6719" stroke-width="2.22245" stroke-linecap="round" stroke-linejoin="round"/>
<path d="M19.5482 26.4941H9.00781" stroke="#EB6719" stroke-width="2.22245" stroke-linecap="round" stroke-linejoin="round"/>
<path d="M25.39 35.7227H1.92188" stroke="#EB6719" stroke-width="2.22245" stroke-linecap="round" stroke-linejoin="round"/>
<path d="M22.7017 10.8384C25.1244 7.92767 28.1521 5.57987 31.5744 3.95837C34.9967 2.33686 38.7312 1.48061 42.5181 1.44922C49.5105 1.44922 56.2166 4.22697 61.161 9.17139C66.1054 14.1158 68.8832 20.8219 68.8832 27.8143C68.8832 34.8068 66.1054 41.5129 61.161 46.4573C56.2166 51.4017 49.5105 54.1795 42.5181 54.1795C37.9677 54.18 33.4966 52.9874 29.551 50.7207C25.6053 48.4539 22.323 45.1923 20.0312 41.2611" stroke="#EB6719" stroke-width="2.22245" stroke-linecap="round" stroke-linejoin="round"/>
<path d="M60.6531 31.3259C59.7856 35.8158 57.283 39.8241 53.6298 42.5748C49.9767 45.3256 45.4329 46.623 40.8781 46.216C36.3233 45.8091 32.0815 43.7266 28.9739 40.3718C25.8663 37.017 24.114 32.6285 24.0562 28.0559C23.9984 23.4833 25.6392 19.0519 28.661 15.6196C31.6828 12.1873 35.8706 9.99822 40.4136 9.47622C44.9567 8.95422 49.5318 10.1364 53.2533 12.7939C56.9748 15.4514 59.578 19.3952 60.5588 23.8617" stroke="#EB6719" stroke-width="2.22245" stroke-linecap="round" stroke-linejoin="round"/>
<path d="M47 23.0008C45 21 40.3932 20.3204 39.5 23.0013C38.6071 25.6813 41.5 26.5013 43 27.0013C44.5 27.5013 47.5001 28.5006 47 31.0006C46.5 33.5006 41.5 34.5007 38 31.0007" stroke="#EB6719" stroke-width="2.22" stroke-linecap="round" stroke-linejoin="round"/>
<path d="M42.5547 18.6523V20.5973" stroke="#EB6719" stroke-width="2.22245" stroke-miterlimit="10" stroke-linecap="round"/>
<path d="M42.5547 34.1562V36.0918" stroke="#EB6719" stroke-width="2.22245" stroke-miterlimit="10" stroke-linecap="round"/>
</g>
<defs>
<clipPath id="clip0_2:172508">
<rect width="69.8006" height="55.5611" fill="white" transform="translate(0.507812 0.0351562)"/>
</clipPath>
</defs>
</svg>
