<svg width="143" height="143" viewBox="0 0 143 143" fill="none" xmlns="http://www.w3.org/2000/svg">
<path d="M61.4726 56.9362C65.74 54.5548 70.7687 53.7756 75.595 54.748C80.4213 55.7204 84.7057 58.3759 87.6273 62.2058C90.5488 66.0357 91.902 70.7705 91.4275 75.5028C90.953 80.2352 88.6841 84.6322 85.0558 87.8514C81.4274 91.0706 76.6947 92.8854 71.7646 92.9482C66.8345 93.0109 62.0538 91.3171 58.3386 88.1914C54.6234 85.0656 52.2351 80.7278 51.6312 76.0092C51.0274 71.2905 52.2505 66.523 55.0663 62.6201" stroke="#00AEC7" stroke-width="3" stroke-linecap="round" stroke-linejoin="round"/>
<path d="M42.7024 68.6403C43.8619 62.4981 46.8439 56.8804 51.2351 52.5658C55.6262 48.2512 61.209 45.4534 67.2096 44.5602V30.0303C57.4957 31.009 48.3899 35.3567 41.3778 42.364C34.3657 49.3712 29.8613 58.6245 28.5996 68.6139" stroke="#00AEC7" stroke-width="3" stroke-linecap="round" stroke-linejoin="round"/>
<path d="M74.9462 44.2612C80.4333 45.0571 85.5862 47.3826 89.8158 50.9719C94.0455 54.5613 97.1814 59.2697 98.8652 64.5591C100.549 69.8485 100.713 75.5055 99.3375 80.8836C97.9624 86.2618 95.104 91.1441 91.0889 94.9726C87.0739 98.8011 82.0642 101.421 76.6322 102.534C71.2003 103.647 65.5654 103.207 60.3714 101.265C55.1773 99.3224 50.6337 95.9563 47.2598 91.5509C43.8859 87.1455 41.8178 81.8786 41.2918 76.3521H27.1699C27.7055 84.6821 30.6116 92.6844 35.5447 99.4133C40.4779 106.142 47.2319 111.316 55.0084 114.324C62.7849 117.331 71.2587 118.047 79.4284 116.386C87.5982 114.725 95.1221 110.756 101.111 104.95C107.1 99.1431 111.303 91.7411 113.225 83.6185C115.146 75.496 114.705 66.9924 111.953 59.1131C109.201 51.2337 104.254 44.3079 97.6959 39.1542C91.1381 34.0005 83.2439 30.8345 74.9462 30.0303" stroke="#00AEC7" stroke-width="3" stroke-linecap="round" stroke-linejoin="round"/>
<path d="M80.4367 37.1802L74.3604 29.9292L82.9403 25.7402" stroke="#00AEC7" stroke-width="3" stroke-linecap="round" stroke-linejoin="round"/>
<path d="M71.5 61.4902V64.3502" stroke="#00AEC7" stroke-width="3" stroke-miterlimit="10" stroke-linecap="round"/>
<path d="M71.5 82.9404V85.8004" stroke="#00AEC7" stroke-width="3" stroke-miterlimit="10" stroke-linecap="round"/>
<path d="M65.7803 79.7249C67.8396 81.748 76.2071 82.9643 77.1456 78.2106C78.3316 71.8683 64.9852 76.051 66.3277 68.8026C67.1097 64.5454 75.0081 65.5631 76.4157 67.1642" stroke="#00AEC7" stroke-width="3" stroke-miterlimit="10" stroke-linecap="round"/>
</svg>
