<svg width="100" height="100" viewBox="0 0 100 100" fill="none" xmlns="http://www.w3.org/2000/svg">
<path d="M84 36.8835C83.9986 39.3258 83.3914 41.7303 82.2319 43.8847C81.0725 46.039 79.3964 47.8771 77.3517 49.2366C75.307 50.5962 72.9565 51.4354 70.5075 51.6802C68.0586 51.925 65.5867 51.5679 63.3097 50.6404C61.5548 49.9352 54.0088 53 54.0088 53C54.0088 53 56.7991 45.6339 56.0971 44.4585C54.9204 42.4901 54.2175 40.2788 54.043 37.9967C53.8685 35.7146 54.2271 33.4234 55.0909 31.3013C55.9548 29.1793 57.3006 27.2837 59.0235 25.7622C60.7464 24.2407 62.8 23.1343 65.0243 22.5292C67.2486 21.9241 69.5837 21.8366 71.8477 22.2735C74.1116 22.7103 76.2435 23.6598 78.0772 25.048C79.9108 26.4362 81.3969 28.2256 82.4196 30.2769C83.4424 32.3283 83.9742 34.5861 83.9737 36.8748L84 36.8835Z" stroke="#939598" stroke-width="3" stroke-linecap="round" stroke-linejoin="round"/>
<path class="S" d="M75.8296 30.7036L75.9412 30.5598V30.4329L75.9928 30.3821V30.2468C76.0024 30.1936 76.0024 30.1392 75.9928 30.086V30.0014C76.0024 29.9483 76.0024 29.8939 75.9928 29.8407V29.6969L75.9412 29.6546C75.9347 29.5864 75.9078 29.5216 75.8639 29.4684C75.8483 29.414 75.8187 29.3645 75.778 29.3246L75.675 29.2231C75.6432 29.1807 75.6021 29.146 75.5547 29.1216L75.4431 29.0116H75.3658H75.3057H75.2455H75.1339H75.0136C74.9709 29.006 74.9275 29.006 74.8848 29.0116H65.4368C65.3516 28.9961 65.2643 28.9961 65.1791 29.0116C64.997 29.0363 64.8228 29.1006 64.6691 29.2C64.5154 29.2994 64.3861 29.4313 64.2907 29.5861C64.1953 29.7408 64.1361 29.9146 64.1174 30.0948C64.0987 30.2749 64.1211 30.4569 64.1828 30.6275C64.2401 30.7786 64.3273 30.917 64.4394 31.0346C64.5515 31.1523 64.6861 31.2468 64.8356 31.3128C65.1138 31.4434 65.3513 31.6453 65.5231 31.8974C65.6949 32.1495 65.7946 32.4424 65.8119 32.7456C65.8291 33.0487 65.7633 33.3508 65.6212 33.6203C65.4792 33.8897 65.2661 34.1165 65.0044 34.2769C64.7428 34.4374 64.4421 34.5255 64.1339 34.5321C63.8258 34.5386 63.5215 34.4634 63.253 34.3143C62.9845 34.1652 62.7617 33.9476 62.608 33.6845C62.4542 33.4214 62.3751 33.1223 62.3791 32.8187C62.3785 32.5808 62.4304 32.3456 62.5313 32.1294C62.6321 31.9132 62.7795 31.7211 62.9632 31.5666C63.0936 31.4629 63.2018 31.3348 63.2814 31.1895C63.361 31.0443 63.4105 30.8848 63.4269 30.7206C63.4478 30.413 63.3462 30.1094 63.1435 29.8745C63.0421 29.7522 62.9172 29.6507 62.7759 29.576C62.6346 29.5013 62.4798 29.4547 62.3202 29.439C62.1607 29.4233 61.9995 29.4387 61.846 29.4844C61.6925 29.5301 61.5497 29.6052 61.4257 29.7053C60.9011 30.1574 60.4997 30.7317 60.2583 31.3759C60.0169 32.02 59.9431 32.7134 60.0436 33.3928C60.1442 34.0723 60.4158 34.7161 60.8338 35.2656C61.2518 35.815 61.8029 36.2526 62.4367 36.5385C63.0705 36.8243 63.7669 36.9492 64.4623 36.9018C65.1577 36.8545 65.8299 36.6363 66.4178 36.2673C67.0056 35.8983 67.4903 35.3901 67.8275 34.7892C68.1648 34.1883 68.3439 33.5138 68.3485 32.8272C68.3454 32.3436 68.2523 31.8647 68.0736 31.4143H72.2307L61.3913 43.9949C61.239 44.1723 61.1413 44.3889 61.1099 44.6192C61.0784 44.8495 61.1144 45.0839 61.2138 45.2946C61.3131 45.5054 61.4715 45.6838 61.6704 45.8088C61.8692 45.9337 62.1002 46.0001 62.3361 46C62.5156 45.9979 62.6926 45.9583 62.8555 45.8839C63.0183 45.8096 63.1633 45.7021 63.2809 45.5685L75.8124 31.0082C75.8383 30.9764 75.8612 30.9424 75.8811 30.9067" fill="#939598"/>
<path class="S" d="M72.942 38.0002C72.1531 38.0117 71.3852 38.2562 70.7349 38.703C70.0846 39.1498 69.581 39.7789 69.2873 40.5112C68.9937 41.2435 68.9232 42.0464 69.0847 42.8187C69.2462 43.591 69.6325 44.2983 70.195 44.8516C70.7574 45.4049 71.4709 45.7795 72.2458 45.9283C73.0206 46.077 73.8222 45.9933 74.5496 45.6876C75.2769 45.382 75.8977 44.8681 76.3337 44.2105C76.7697 43.5529 77.0015 42.781 77 41.992C76.9967 41.4632 76.8891 40.9401 76.6832 40.453C76.4773 39.9658 76.1772 39.5241 75.8002 39.1532C75.4231 38.7823 74.9766 38.4895 74.4861 38.2916C73.9956 38.0938 73.4709 37.9948 72.942 38.0002ZM74.5983 41.992C74.5983 42.4313 74.4238 42.8526 74.1132 43.1633C73.8026 43.4739 73.3813 43.6484 72.942 43.6484C72.7015 43.6972 72.4531 43.692 72.2148 43.6331C71.9765 43.5741 71.7543 43.463 71.5642 43.3076C71.3742 43.1523 71.221 42.9566 71.1158 42.7348C71.0107 42.513 70.9561 42.2706 70.9561 42.0252C70.9561 41.7797 71.0107 41.5373 71.1158 41.3155C71.221 41.0937 71.3742 40.898 71.5642 40.7427C71.7543 40.5873 71.9765 40.4762 72.2148 40.4172C72.4531 40.3583 72.7015 40.3531 72.942 40.4019C73.3813 40.4019 73.8026 40.5765 74.1132 40.8871C74.4238 41.1977 74.5983 41.619 74.5983 42.0583" fill="#939598"/>
<path d="M68 58C73.4852 57.0506 77 55.5893 77 53.9629V50" stroke="#939598" stroke-width="3" stroke-linecap="round" stroke-linejoin="round"/>
<path d="M68 66C73.4852 64.9905 77 63.4456 77 61.7076V53" stroke="#939598" stroke-width="3" stroke-linecap="round" stroke-linejoin="round"/>
<path d="M18 74.184L25.813 77.8725C28.5302 79.1604 35.2321 70.5481 40.762 58.5978C46.2918 46.6475 48.575 35.9764 45.8491 34.6885L38.0361 31" stroke="#939598" stroke-width="3" stroke-linecap="round" stroke-linejoin="round"/>
<path d="M45 50C47.7829 50 50.8675 50 54.0947 50H55" stroke="#939598" stroke-width="3" stroke-linecap="round" stroke-linejoin="round"/>
<path d="M35.2584 48.835C34.4811 50.7521 33.5966 52.7559 32.5781 54.7944C26.887 66.592 19.9898 75.1278 17.1844 73.8786C14.3791 72.6295 16.7288 62.0031 22.4199 50.2056C28.111 38.408 35.0083 29.8722 37.8136 31.1214C39.395 31.8413 39.3414 35.5194 37.9744 40.7068" stroke="#939598" stroke-width="3" stroke-linecap="round" stroke-linejoin="round"/>
<path d="M41 58C45.2844 58.6811 49.6063 59.0151 53.9328 58.9995C55.6984 58.9995 57.3668 58.9995 59 58.8695" stroke="#939598" stroke-width="3" stroke-linecap="round" stroke-linejoin="round"/>
<path d="M38 65C43.5598 66.4099 49.2234 67.0779 54.8957 66.9928C56.6742 66.9928 58.3549 66.9371 60 66.8369" stroke="#939598" stroke-width="3" stroke-linecap="round" stroke-linejoin="round"/>
<path d="M33 72.1395C36.9445 73.8679 44.6875 75 53.625 75C66.5156 75 77 72.5716 77 69.5728V61" stroke="#939598" stroke-width="3" stroke-linecap="round" stroke-linejoin="round"/>
<path d="M47 39C49.1632 39 51.4561 39 53.8356 39H54" stroke="#939598" stroke-width="3" stroke-linecap="round" stroke-linejoin="round"/>
</svg>
