<svg width="40" height="40" viewBox="0 0 40 40" fill="none" xmlns="http://www.w3.org/2000/svg">
<path d="M27.3859 11.6156L25.3063 8.32969C24.868 7.81875 24.2672 7.5 23.5938 7.5H16.4062C15.7328 7.5 15.132 7.81875 14.6938 8.32969L12.6141 11.6156C12.1758 12.1273 11.6109 12.5 10.9375 12.5H6.25C5.58696 12.5 4.95107 12.7634 4.48223 13.2322C4.01339 13.7011 3.75 14.337 3.75 15V30C3.75 30.663 4.01339 31.2989 4.48223 31.7678C4.95107 32.2366 5.58696 32.5 6.25 32.5H33.75C34.413 32.5 35.0489 32.2366 35.5178 31.7678C35.9866 31.2989 36.25 30.663 36.25 30V15C36.25 14.337 35.9866 13.7011 35.5178 13.2322C35.0489 12.7634 34.413 12.5 33.75 12.5H29.1406C28.4648 12.5 27.8242 12.1273 27.3859 11.6156Z" stroke="white" stroke-linecap="round" stroke-linejoin="round"/>
<path d="M9.6875 12.3438V10.625H7.8125V12.3438" stroke="white" stroke-linecap="round" stroke-linejoin="round"/>
<path d="M26.2313 22.2831V21.2433C26.2307 20.0575 25.8928 18.8963 25.2571 17.8953C24.6213 16.8943 23.7139 16.0948 22.6408 15.5902C21.5677 15.0856 20.3732 14.8967 19.1968 15.0455C18.0203 15.1944 16.9105 15.6748 15.9969 16.4308M13.75 20.2175V21.2573C13.7509 22.4407 14.0877 23.5995 14.7212 24.599C15.3548 25.5984 16.259 26.3975 17.3289 26.9032C18.3987 27.409 19.5901 27.6006 20.7646 27.4558C21.939 27.3111 23.0483 26.8359 23.9633 26.0855" stroke="white" stroke-width="2" stroke-linecap="round" stroke-linejoin="round"/>
<path d="M15.3125 21.25L13.75 19.6875L12.1875 21.25" stroke="white" stroke-width="2" stroke-linecap="round" stroke-linejoin="round"/>
<path d="M27.8125 21.25L26.25 22.8125L24.6875 21.25" stroke="white" stroke-width="2" stroke-linecap="round" stroke-linejoin="round"/>
</svg>
