<svg width="52" height="52" viewBox="0 0 52 52" fill="none" xmlns="http://www.w3.org/2000/svg">
<path d="M40.0558 17.8408H7.58699" stroke="#EB6719" stroke-width="1.5" stroke-linecap="round" stroke-linejoin="round"/>
<path d="M17.1394 22.6147H12.3658V26.4367H17.1394V22.6147Z" stroke="#EB6719" stroke-width="1.5" stroke-linecap="round" stroke-linejoin="round"/>
<path d="M26.1458 22.6147H21.3722V26.4367H26.1458V22.6147Z" stroke="#EB6719" stroke-width="1.5" stroke-linecap="round" stroke-linejoin="round"/>
<path d="M17.1394 30.2534H12.3658V34.0754H17.1394V30.2534Z" stroke="#EB6719" stroke-width="1.5" stroke-linecap="round" stroke-linejoin="round"/>
<path d="M23.2806 30.2534H21.3722V34.0754H23.2806" stroke="#EB6719" stroke-width="1.5" stroke-linecap="round" stroke-linejoin="round"/>
<path d="M35.823 42.2552C40.5703 42.2552 44.4186 38.4068 44.4186 33.6596C44.4186 28.9123 40.5703 25.064 35.823 25.064C31.0758 25.064 27.2274 28.9123 27.2274 33.6596C27.2274 38.4068 31.0758 42.2552 35.823 42.2552Z" stroke="#EB6719" stroke-width="1.5" stroke-linecap="round" stroke-linejoin="round"/>
<path d="M33.8783 12.1162H36.5927C37.5972 12.119 38.5598 12.5192 39.2701 13.2296C39.9804 13.9399 40.3807 14.9025 40.3834 15.907V22.7346" stroke="#EB6719" stroke-width="1.5" stroke-linecap="round" stroke-linejoin="round"/>
<path d="M18.195 12.1108H29.7754" stroke="#EB6719" stroke-width="1.5" stroke-linecap="round" stroke-linejoin="round"/>
<path d="M25.1266 38.8806H11.3778C10.3732 38.8779 9.41062 38.4776 8.70031 37.7673C7.98999 37.057 7.58974 36.0944 7.58699 35.0898V15.9226C7.58974 14.9181 7.98999 13.9555 8.70031 13.2452C9.41062 12.5348 10.3732 12.1346 11.3778 12.1318H14.0922" stroke="#EB6719" stroke-width="1.5" stroke-linecap="round" stroke-linejoin="round"/>
<path d="M17.1707 9.73975H15.1167C14.5509 9.73975 14.0923 10.1984 14.0923 10.7641V13.4577C14.0923 14.0235 14.5509 14.4821 15.1167 14.4821H17.1707C17.7364 14.4821 18.1951 14.0235 18.1951 13.4577V10.7641C18.1951 10.1984 17.7364 9.73975 17.1707 9.73975Z" stroke="#EB6719" stroke-width="1.5" stroke-miterlimit="10" stroke-linecap="round"/>
<path d="M32.8538 9.73975H30.7998C30.234 9.73975 29.7754 10.1984 29.7754 10.7641V13.4577C29.7754 14.0235 30.234 14.4821 30.7998 14.4821H32.8538C33.4196 14.4821 33.8782 14.0235 33.8782 13.4577V10.7641C33.8782 10.1984 33.4196 9.73975 32.8538 9.73975Z" stroke="#EB6719" stroke-width="1.5" stroke-miterlimit="10" stroke-linecap="round"/>
<path d="M35.4903 29.146V34.0184H38.6779" stroke="#EB6719" stroke-width="1.5" stroke-linecap="round" stroke-linejoin="round"/>
</svg>
