<svg width="143" height="143" viewBox="0 0 143 143" fill="none" xmlns="http://www.w3.org/2000/svg">
<path d="M39.5627 102.96H32.0629C30.0054 102.956 28.0333 102.14 26.5797 100.689C25.126 99.2388 24.3096 97.273 24.3096 95.2234L26.2979 43.4733C26.2979 42.4591 26.4985 41.4548 26.8881 40.5177C27.2778 39.5807 27.8489 38.7293 28.5688 38.0121C29.2888 37.2949 30.1435 36.726 31.0842 36.3379C32.0249 35.9498 33.0331 35.75 34.0513 35.75H70.4959C72.5534 35.75 74.5269 36.5633 75.9831 38.0113C77.4392 39.4593 78.259 41.4237 78.2626 43.4733L78.6496 53.709" stroke="#00AEC7" stroke-width="3" stroke-miterlimit="10" stroke-linecap="round"/>
<path d="M58.6299 32.8896V44.3297" stroke="#00AEC7" stroke-width="3" stroke-miterlimit="10" stroke-linecap="round"/>
<path d="M45.7598 44.3302V28.042C45.8325 26.2676 46.5422 24.5918 47.741 23.3637C48.9399 22.1357 50.5353 21.4502 52.1948 21.4502C53.8542 21.4502 55.4497 22.1357 56.6485 23.3637C57.8474 24.5918 58.5571 26.2676 58.6298 28.042" stroke="#00AEC7" stroke-width="3" stroke-miterlimit="10" stroke-linecap="round"/>
<path d="M76.9666 121.55H46.4486C44.3698 121.55 42.376 120.726 40.9061 119.259C39.4361 117.792 38.6104 115.803 38.6104 113.729L40.617 83.5981C40.617 81.5273 41.4414 79.5413 42.9089 78.077C44.3763 76.6127 46.3665 75.79 48.4418 75.79H85.1953C87.2718 75.79 89.2635 76.6122 90.733 78.0761C92.2026 79.54 93.03 81.5261 93.0336 83.5981L94.3804 113.729" stroke="#00AEC7" stroke-width="3" stroke-miterlimit="10" stroke-linecap="round"/>
<path d="M62.9199 121.55H86.3914C88.5101 121.55 90.542 120.797 92.0401 119.456C93.5383 118.115 94.3799 116.297 94.3799 114.4" stroke="#00AEC7" stroke-width="3" stroke-miterlimit="10" stroke-linecap="round"/>
<path d="M60.0596 84.3702V68.063C60.1403 66.2937 60.9289 64.6227 62.261 63.3982C63.593 62.1737 65.3657 61.4902 67.2096 61.4902C69.0534 61.4902 70.8261 62.1737 72.1582 63.3982C73.4902 64.6227 74.2788 66.2937 74.3596 68.063" stroke="#00AEC7" stroke-width="3" stroke-miterlimit="10" stroke-linecap="round"/>
<path d="M68.6396 61.8079C68.6412 60.8145 68.8402 59.8313 69.225 58.9158C69.6098 58.0003 70.1727 57.1708 70.8809 56.4757C71.5891 55.7806 72.4283 55.2339 73.3496 54.8674C74.2709 54.5009 75.2558 54.3221 76.2468 54.3412H111.978C113.999 54.3412 115.938 55.1459 117.367 56.5781C118.796 58.0104 119.599 59.9529 119.599 61.9785L121.55 95.3226C121.546 97.347 120.742 99.2876 119.314 100.719C117.886 102.151 115.949 102.956 113.929 102.96H93.6347" stroke="#00AEC7" stroke-width="3" stroke-miterlimit="10" stroke-linecap="round"/>
<path d="M100.1 51.4805V62.9205" stroke="#00AEC7" stroke-width="3" stroke-miterlimit="10" stroke-linecap="round"/>
<path d="M85.8067 62.9203V46.0382C85.7644 45.0784 85.9178 44.12 86.2577 43.2207C86.5976 42.3215 87.117 41.5001 87.7845 40.806C88.4519 40.112 89.2537 39.5596 90.1414 39.1822C91.0292 38.8049 91.9845 38.6104 92.9498 38.6104C93.9151 38.6104 94.8705 38.8049 95.7582 39.1822C96.6459 39.5596 97.4477 40.112 98.1151 40.806C98.7826 41.5001 99.302 42.3215 99.6419 43.2207C99.9818 44.12 100.135 45.0784 100.093 46.0382" stroke="#00AEC7" stroke-width="3" stroke-miterlimit="10" stroke-linecap="round"/>
<path d="M74.3604 72.9297V85.7997" stroke="#00AEC7" stroke-width="3" stroke-miterlimit="10" stroke-linecap="round"/>
</svg>
