<svg width="100" height="101" viewBox="0 0 100 101" fill="none" xmlns="http://www.w3.org/2000/svg">
<path d="M80.4701 65.8599C79.3387 66.2812 78.3197 66.9579 77.4924 67.8372C76.6651 68.7166 76.0517 69.7749 75.7001 70.9299" stroke="#939598" stroke-width="3" stroke-miterlimit="10" stroke-linecap="round"/>
<path d="M80.4701 50.2399C79.3387 49.8186 78.3197 49.1419 77.4924 48.2626C76.6651 47.3832 76.0517 46.3249 75.7001 45.1699" stroke="#939598" stroke-width="3" stroke-miterlimit="10" stroke-linecap="round"/>
<path d="M13.6101 37.9502C13.6101 37.9502 16.2401 44.5202 19.1401 45.6702C22.0401 46.8202 31.9701 49.6702 34.4001 50.4802C40.2701 52.5302 41.1301 49.7101 39.6901 46.8201C38.1201 43.6501 33.6001 42.9401 32.1601 42.2801C29.9801 41.2801 29.5001 41.5701 29.5001 40.4401C29.5001 39.3101 31.7001 35.7201 31.7001 35.7201H37.0501L42.4601 40.1601H53.5601L40.9001 27.1601C38.8564 25.4395 36.2505 24.5317 33.5801 24.6102C28.2501 24.6102 16.9401 24.6102 13.5801 24.6102" stroke="#939598" stroke-width="3" stroke-miterlimit="10" stroke-linecap="round"/>
<path d="M39.8702 40.28H80.3102C81.5551 40.2853 82.7475 40.7822 83.6277 41.6624C84.508 42.5427 85.0049 43.7351 85.0101 44.98V70.79C85.0049 72.034 84.5077 73.2254 83.6271 74.1041C82.7466 74.9828 81.5542 75.4774 80.3102 75.48H28.6301C27.3861 75.4774 26.1937 74.9828 25.3132 74.1041C24.4326 73.2254 23.9355 72.034 23.9302 70.79V54.2401" stroke="#939598" stroke-width="3" stroke-miterlimit="10" stroke-linecap="round"/>
<path d="M28.8 65.8599C29.9315 66.2812 30.9505 66.9579 31.7778 67.8372C32.6051 68.7166 33.2184 69.7749 33.57 70.9299" stroke="#939598" stroke-width="3" stroke-miterlimit="10" stroke-linecap="round"/>
<path d="M54.51 46.1602V48.3102" stroke="#939598" stroke-width="3" stroke-miterlimit="10" stroke-linecap="round"/>
<path d="M54.51 66.8501V69.4401" stroke="#939598" stroke-width="3" stroke-miterlimit="10" stroke-linecap="round"/>
<path d="M49.54 63.5899C51.47 65.5899 59.3501 66.7799 60.1801 62.0999C61.2901 55.8699 48.79 59.9799 50.05 52.8499C50.79 48.6599 58.1801 49.6599 59.5001 51.2399" stroke="#939598" stroke-width="3" stroke-miterlimit="10" stroke-linecap="round"/>
</svg>
