<svg width="101" height="101" viewBox="0 0 101 101" fill="none" xmlns="http://www.w3.org/2000/svg">
<path d="M14.43 38.98V32.72C14.4379 31.0259 15.115 29.4037 16.3138 28.2068C17.5127 27.0098 19.136 26.3352 20.83 26.33H79.34C81.034 26.3352 82.6573 27.0098 83.8561 28.2068C85.0549 29.4037 85.7321 31.0259 85.74 32.72V69.02C85.7321 70.714 85.0549 72.3362 83.8561 73.5332C82.6573 74.7301 81.034 75.4047 79.34 75.41H20.83C19.136 75.4047 17.5127 74.7301 16.3138 73.5332C15.115 72.3362 14.4379 70.714 14.43 69.02V57.02" stroke="#939598" stroke-width="3" stroke-miterlimit="10" stroke-linecap="round"/>
<path d="M47.51 59.45H23.91V66.47H47.51V59.45Z" stroke="#939598" stroke-width="3" stroke-linecap="round" stroke-linejoin="round"/>
<path d="M14.43 49.3499H85.7" stroke="#939598" stroke-width="3" stroke-miterlimit="10" stroke-linecap="round"/>
<path d="M14.43 38.97H85.7" stroke="#939598" stroke-width="3" stroke-miterlimit="10" stroke-linecap="round"/>
<path d="M56.4 59.45H77.81" stroke="#939598" stroke-width="3" stroke-miterlimit="10" stroke-linecap="round"/>
</svg>
