<svg width="100" height="100" viewBox="0 0 100 100" fill="none" xmlns="http://www.w3.org/2000/svg">
<path d="M39.8299 44.89H30.0499" stroke="#939598" stroke-width="3" stroke-linecap="round" stroke-linejoin="round"/>
<path d="M33.2 53.27H22.02" stroke="#939598" stroke-width="3" stroke-linecap="round" stroke-linejoin="round"/>
<path d="M39.39 63.05H14.52" stroke="#939598" stroke-width="3" stroke-linecap="round" stroke-linejoin="round"/>
<path d="M36.54 36.6801C39.1073 33.5955 42.3159 31.1075 45.9426 29.3891C49.5693 27.6708 53.5269 26.7634 57.54 26.7301C64.9501 26.7301 72.0567 29.6738 77.2965 34.9135C82.5363 40.1533 85.48 47.26 85.48 54.6701C85.48 62.0803 82.5363 69.1869 77.2965 74.4267C72.0567 79.6664 64.9501 82.6101 57.54 82.6101C52.7189 82.6107 47.9819 81.3479 43.8008 78.9477C39.6197 76.5475 36.1406 73.0936 33.71 68.9301" stroke="#939598" stroke-width="3" stroke-linecap="round" stroke-linejoin="round"/>
<path d="M57.5499 26.73V22.54" stroke="#939598" stroke-width="3" stroke-linecap="round" stroke-linejoin="round"/>
<path d="M51.96 21.58V17.39H63.14V21.58" stroke="#939598" stroke-width="3" stroke-linecap="round" stroke-linejoin="round"/>
<path d="M76.7599 58.3901C75.8405 63.1482 73.1885 67.3959 69.3171 70.311C65.4458 73.226 60.6306 74.601 55.8037 74.1697C50.9768 73.7384 46.4816 71.5315 43.1884 67.9763C39.8952 64.4211 38.0382 59.7705 37.9769 54.9247C37.9156 50.079 39.6545 45.3829 42.8568 41.7456C46.0591 38.1083 50.497 35.7884 55.3114 35.2353C60.1259 34.6821 64.9743 35.9349 68.9181 38.7511C72.8619 41.5674 75.6206 45.7467 76.66 50.4801" stroke="#939598" stroke-width="3" stroke-linecap="round" stroke-linejoin="round"/>
<path class="S" d="M58.23 61.3901C56.29 61.402 54.4009 60.7688 52.86 59.5901C52.7212 59.4905 52.6057 59.3621 52.5214 59.2135C52.4371 59.065 52.3861 58.8999 52.3718 58.7297C52.3575 58.5595 52.3804 58.3882 52.4388 58.2277C52.4971 58.0672 52.5897 57.9213 52.71 57.8001C52.8207 57.6909 52.9519 57.6046 53.096 57.5462C53.2402 57.4879 53.3944 57.4586 53.55 57.4601C53.8162 57.4454 54.079 57.527 54.29 57.6901C54.8595 58.1441 55.493 58.5114 56.17 58.7801C56.8486 59.0438 57.572 59.1728 58.3 59.1601C58.9547 59.2002 59.6046 59.0245 60.15 58.6601C60.3619 58.5164 60.5349 58.3225 60.6535 58.0956C60.7722 57.8688 60.8328 57.6161 60.83 57.3601C60.8344 57.1301 60.7901 56.9017 60.7 56.6901C60.5911 56.4567 60.4219 56.2565 60.21 56.1101C59.8997 55.9035 59.5634 55.7387 59.21 55.6201C58.6761 55.4378 58.1318 55.2875 57.58 55.1701C56.9006 55.0153 56.2324 54.8148 55.58 54.5701C55.0395 54.3738 54.5334 54.0937 54.08 53.7401C53.6892 53.4243 53.3748 53.0243 53.16 52.5701C52.9383 52.042 52.8326 51.4725 52.85 50.9001C52.8425 50.3169 52.9655 49.7395 53.21 49.2101C53.4488 48.7087 53.7893 48.2626 54.21 47.9001C54.6675 47.5256 55.1893 47.2376 55.75 47.0501C56.3955 46.8404 57.0713 46.739 57.75 46.7501C58.5816 46.7407 59.4102 46.8519 60.21 47.0801C60.948 47.3111 61.6487 47.648 62.29 48.0801C62.4499 48.1675 62.5843 48.295 62.68 48.4501C62.7968 48.639 62.8559 48.858 62.85 49.0801C62.8517 49.2351 62.8215 49.3887 62.7613 49.5315C62.7011 49.6743 62.6121 49.8031 62.5 49.9101C62.3888 50.018 62.2573 50.1027 62.1131 50.1594C61.9689 50.216 61.8149 50.2435 61.66 50.2401C61.4309 50.2408 61.2061 50.1785 61.01 50.0601C60.4871 49.738 59.9346 49.4667 59.36 49.2501C58.8288 49.069 58.2712 48.9778 57.71 48.9801C57.0976 48.9425 56.4906 49.1154 55.99 49.4701C55.8018 49.6088 55.6487 49.7895 55.5428 49.9978C55.4369 50.2062 55.3811 50.4364 55.38 50.6701C55.3762 50.9204 55.4239 51.1689 55.52 51.4001C55.6441 51.6361 55.831 51.8334 56.06 51.9701C56.3729 52.1695 56.7086 52.3307 57.06 52.4501C57.6182 52.6357 58.1857 52.7926 58.76 52.9201C59.4421 53.0861 60.1106 53.3034 60.76 53.5701C61.2783 53.7765 61.7609 54.0634 62.19 54.4201C62.5598 54.732 62.8568 55.1211 63.06 55.5601C63.2705 56.0526 63.3728 56.5846 63.36 57.1201C63.37 57.7442 63.2402 58.3627 62.98 58.9301C62.7472 59.4436 62.4061 59.9008 61.98 60.2701C61.4983 60.6482 60.9482 60.93 60.36 61.1001C59.6698 61.3087 58.9509 61.4066 58.23 61.3901Z" fill="#939598" stroke="#939598" stroke-width="0.5" stroke-miterlimit="10"/>
<path d="M57.5699 44.9601V47.0201" stroke="#939598" stroke-width="3" stroke-miterlimit="10" stroke-linecap="round"/>
<path d="M57.5699 61.39V63.44" stroke="#939598" stroke-width="3" stroke-miterlimit="10" stroke-linecap="round"/>
</svg>
