<svg width="86" height="86" viewBox="0 0 86 86" fill="none" xmlns="http://www.w3.org/2000/svg">
<g clip-path="url(#clip0_1583_207031)">
<path d="M43.0001 86.0004C31.5957 86.0004 20.6585 81.4701 12.5945 73.4061C4.53039 65.342 0 54.4048 0 43.0005C0 31.5961 4.53039 20.6589 12.5945 12.5949C20.6585 4.53079 31.5957 0.000397132 43.0001 0.000397132C52.484 -0.0406132 61.7084 3.09569 69.2018 8.90899C69.6287 9.27124 69.9001 9.7837 69.96 10.3404C70.0199 10.8971 69.8637 11.4555 69.5236 11.9003C69.1835 12.345 68.6856 12.6421 68.1326 12.7302C67.5797 12.8182 67.0141 12.6905 66.5526 12.3735C59.824 7.15556 51.5438 4.33744 43.0292 4.36736C34.9436 4.3679 27.0619 6.90534 20.4946 11.6222C13.9274 16.339 9.00573 22.9975 6.42286 30.6595C3.83999 38.3214 3.72616 46.6007 6.0975 54.3307C8.46884 62.0608 13.2059 68.852 19.641 73.7475C26.0761 78.643 33.885 81.3961 41.9675 81.6188C50.05 81.8415 57.9988 79.5227 64.6938 74.989C71.3887 70.4553 76.4924 63.9353 79.2858 56.3476C82.0793 48.7599 82.4217 40.487 80.2647 32.6944C80.1103 32.1346 80.1846 31.5364 80.4712 31.0314C80.7579 30.5264 81.2335 30.1559 81.7933 30.0015C82.353 29.8471 82.9512 29.9213 83.4563 30.208C83.9613 30.4946 84.3317 30.9701 84.4862 31.5299C86.2415 37.9159 86.5002 44.6208 85.2419 51.123C83.9836 57.6253 81.2422 63.7496 77.2312 69.0197C73.2202 74.2898 68.0475 78.5637 62.1155 81.5088C56.1834 84.4539 49.6521 85.991 43.0292 86.0004H43.0001Z" fill="#ED1C24"/>
<path d="M28.9966 70.7164C28.7136 70.7206 28.433 70.6659 28.1723 70.5556C27.9117 70.4453 27.6767 70.2819 27.4827 70.0759C27.0738 69.6665 26.8442 69.1116 26.8442 68.5329C26.8442 67.9543 27.0738 67.3993 27.4827 66.9899L75.1118 18.5458C75.5212 18.1369 76.0761 17.9072 76.6547 17.9072C77.2333 17.9072 77.7884 18.1369 78.1978 18.5458C78.6067 18.9552 78.8362 19.5102 78.8362 20.0888C78.8362 20.6675 78.6067 21.2224 78.1978 21.6318L30.5687 70.0759C30.3617 70.2809 30.1163 70.443 29.8465 70.5529C29.5767 70.6628 29.2879 70.7184 28.9966 70.7164Z" fill="#ED1C24"/>
<path d="M65.6795 64.5141C65.1148 64.5138 64.5723 64.2947 64.1657 63.9028L21.515 22.5913C21.2406 22.422 21.0072 22.1939 20.8314 21.9237C20.6556 21.6534 20.5419 21.3476 20.4984 21.0281C20.4549 20.7086 20.4826 20.3835 20.5796 20.076C20.6767 19.7685 20.8407 19.4864 21.0597 19.2498C21.2788 19.0133 21.5475 18.8281 21.8466 18.7077C22.1457 18.5873 22.4677 18.5347 22.7896 18.5535C23.1114 18.5724 23.4251 18.6623 23.7081 18.8168C23.991 18.9713 24.2364 19.1866 24.4263 19.4472L67.077 60.7877C67.395 61.0854 67.6151 61.4727 67.7085 61.8981C67.802 62.3236 67.7643 62.7674 67.6003 63.171C67.4363 63.5746 67.1539 63.9191 66.7902 64.1588C66.4265 64.3986 65.9986 64.5225 65.5631 64.5141H65.6795Z" fill="#ED1C24"/>
</g>
<defs>
<clipPath id="clip0_1583_207031">
<rect width="86" height="86" fill="white"/>
</clipPath>
</defs>
</svg>
