<svg width="50" height="52" viewBox="0 0 50 52" fill="none" xmlns="http://www.w3.org/2000/svg">
<path d="M25.3498 44.5331C26.4984 44.9128 27.673 45.1979 28.8631 45.3859C31.1514 45.7499 31.4846 44.0391 33.3858 39.9051C33.4877 39.7144 33.5517 39.5035 33.574 39.2855C33.5963 39.0676 33.5763 38.8471 33.5152 38.6376C33.4542 38.4282 33.3534 38.2342 33.219 38.0676C33.0847 37.901 32.9196 37.7654 32.7341 37.6691L28.4074 34.9911C28.0589 34.8262 27.6636 34.8117 27.3052 34.9504C26.9468 35.0892 26.6532 35.3704 26.4866 35.7347C26.4866 35.7347 26.0358 36.8007 25.8496 37.1387C25.6144 37.5703 25.1587 38.2151 24.0415 37.6587C23.2643 37.2966 22.5252 36.8486 21.8365 36.3223C20.6546 35.4403 19.5464 34.4521 18.5241 33.3687V33.3687C17.294 32.0871 16.2087 30.6579 15.2901 29.1099" stroke="#EB6719" stroke-width="1.5" stroke-linecap="round" stroke-linejoin="round"/>
<path d="M21.5816 42.9052C19.0122 41.5059 16.6685 39.6822 14.6383 37.5024H14.6138C10.5272 33.1604 7.96453 27.95 7.18543 22.4224C6.87673 20.202 8.24383 19.6664 11.4337 18.0908L12.3549 17.628C12.5348 17.5206 12.7334 17.4532 12.9386 17.43C13.1439 17.4068 13.3514 17.4282 13.5486 17.4929C13.7458 17.5576 13.9284 17.6643 14.0855 17.8064C14.2425 17.9486 14.3706 18.1232 14.4619 18.3196L16.9854 22.9008C17.1225 23.2678 17.1234 23.6763 16.988 24.0439C16.8525 24.4116 16.5907 24.7111 16.2553 24.882L14.5942 25.7296C14.4334 25.8211 14.3061 25.967 14.2324 26.1441C14.1587 26.3213 14.1429 26.5194 14.1875 26.7072" stroke="#EB6719" stroke-width="1.5" stroke-linecap="round" stroke-linejoin="round"/>
<path d="M13.7956 22.963L11.1937 18.231" stroke="#EB6719" stroke-width="1.5" stroke-linecap="round" stroke-linejoin="round"/>
<path d="M26.119 36.5977L32.9643 40.8357" stroke="#EB6719" stroke-width="1.5" stroke-linecap="round" stroke-linejoin="round"/>
<path d="M43.6513 18.3663C43.6512 20.3022 43.2022 22.2082 42.3441 23.9165C41.4859 25.6247 40.2448 27.0826 38.7303 28.1617C37.2158 29.2407 35.4744 29.9077 33.6596 30.1038C31.8448 30.2999 30.0125 30.0192 28.3241 29.2863C27.0354 28.7247 21.42 31.1583 21.42 31.1583C21.42 31.1583 23.4976 25.3187 22.9733 24.3983C22.0995 22.8367 21.5773 21.082 21.4472 19.2711C21.3172 17.4602 21.5828 15.6418 22.2235 13.9577C22.8641 12.2735 23.8625 10.7691 25.1408 9.5615C26.4191 8.35393 27.9429 7.47583 29.5934 6.9956C31.2439 6.51538 32.9766 6.446 34.6565 6.79286C36.3364 7.13971 37.9182 7.89345 39.2786 8.99535C40.6391 10.0973 41.7414 11.5176 42.4999 13.1457C43.2583 14.7738 43.6523 16.5657 43.6513 18.3819V18.3663Z" stroke="#EB6719" stroke-width="1.5" stroke-linecap="round" stroke-linejoin="round"/>
<path d="M27.1432 16.2395C27.1419 16.0936 27.1742 15.9495 27.2374 15.8199C27.3006 15.6903 27.3927 15.579 27.5058 15.4959L29.309 13.9359C29.5099 13.7643 29.6814 13.6083 29.799 13.4679C29.925 13.3501 30.0399 13.2195 30.142 13.0779C30.2218 12.9677 30.2846 12.8449 30.3282 12.7139C30.3683 12.5865 30.3881 12.453 30.387 12.3187C30.3947 12.1979 30.3777 12.0768 30.3371 11.9637C30.2965 11.8506 30.2333 11.7482 30.1518 11.6635C29.9788 11.5117 29.7586 11.4338 29.5344 11.4451C29.3479 11.4421 29.1639 11.4904 29.0003 11.5855C28.8144 11.7043 28.6488 11.8555 28.5103 12.0327C28.454 12.09 28.3895 12.1374 28.3192 12.1731C28.2332 12.221 28.1369 12.2443 28.0399 12.2407C27.8718 12.2407 27.7105 12.1702 27.5912 12.0445C27.4718 11.9189 27.4042 11.7483 27.4029 11.5699C27.4007 11.3987 27.4603 11.2332 27.5695 11.1071C27.8084 10.8046 28.1015 10.5554 28.4319 10.3739C28.8089 10.1881 29.2218 10.0991 29.6373 10.1139C29.9404 10.1112 30.2418 10.1621 30.5291 10.2647C30.7825 10.3547 31.0172 10.4959 31.22 10.6807C31.4106 10.8631 31.5626 11.0865 31.6659 11.3359C31.7718 11.6078 31.8251 11.8996 31.8227 12.1939C31.8265 12.4494 31.7917 12.704 31.7198 12.9479C31.6505 13.1728 31.5462 13.3837 31.4111 13.5719C31.2589 13.7891 31.0829 13.9864 30.8868 14.1595C30.6761 14.3571 30.4311 14.5703 30.1518 14.8043L29.1179 15.6519H31.3474C31.467 15.6523 31.5838 15.6901 31.6833 15.7606C31.7827 15.8312 31.8604 15.9313 31.9064 16.0485C31.9524 16.1657 31.9649 16.2946 31.9421 16.4193C31.9194 16.5439 31.8625 16.6586 31.7786 16.7491C31.7218 16.8084 31.6543 16.855 31.5803 16.8863C31.5062 16.9176 31.427 16.9328 31.3474 16.9311H27.9174C27.7233 16.9381 27.5329 16.8738 27.3784 16.7491C27.3077 16.6856 27.2519 16.6056 27.2153 16.5154C27.1788 16.4252 27.1625 16.3272 27.1677 16.2291" fill="#EB6719"/>
<path d="M35.6398 15.4853H33.0281C32.9385 15.489 32.8491 15.4739 32.765 15.4409C32.6809 15.4079 32.6038 15.3576 32.5381 15.2929C32.4729 15.232 32.4211 15.1567 32.3864 15.0722C32.3517 14.9877 32.3349 14.8962 32.3372 14.8041C32.3356 14.6567 32.3657 14.5108 32.4254 14.3777C32.4909 14.2398 32.5715 14.1107 32.6655 13.9929L35.4242 10.5973C35.5334 10.4531 35.6622 10.327 35.8064 10.2229C35.9533 10.1274 36.1243 10.082 36.2964 10.0929C36.3868 10.089 36.477 10.1051 36.5613 10.14C36.6457 10.1749 36.7223 10.2279 36.7864 10.2957C36.8516 10.3629 36.9028 10.4439 36.9366 10.5335C36.9704 10.6231 36.986 10.7193 36.9824 10.8157V14.2997H37.3156C37.3911 14.2981 37.4662 14.313 37.5362 14.3434C37.6061 14.3738 37.6694 14.4191 37.7223 14.4765C37.7756 14.5331 37.8179 14.6004 37.8465 14.6745C37.8751 14.7486 37.8895 14.828 37.8889 14.9081C37.8896 14.9866 37.8751 15.0645 37.8465 15.1369C37.8179 15.2093 37.7756 15.2748 37.7223 15.3293C37.6685 15.385 37.6049 15.4288 37.5351 15.4583C37.4653 15.4877 37.3907 15.5022 37.3156 15.5009H36.9824V16.3121C36.9863 16.4085 36.9708 16.5048 36.9371 16.5945C36.9033 16.6841 36.8519 16.7651 36.7864 16.8321C36.7223 16.8999 36.6457 16.9529 36.5613 16.9878C36.477 17.0227 36.3868 17.0387 36.2964 17.0349C36.2058 17.0397 36.1154 17.0241 36.0309 16.9892C35.9464 16.9542 35.8699 16.9007 35.8064 16.8321C35.7425 16.7641 35.6925 16.6828 35.6596 16.5933C35.6267 16.5038 35.6116 16.408 35.6153 16.3121L35.6398 15.4853ZM35.6398 14.2841V12.2041L33.9542 14.2841H35.6398Z" fill="#EB6719"/>
<path d="M25.6584 19.9992C25.6963 19.9669 25.7395 19.9423 25.7858 19.9264C25.8236 19.9086 25.863 19.8947 25.9034 19.8848L39.8831 16.8636C39.9818 16.8315 40.0875 16.8334 40.1852 16.8689C40.2829 16.9043 40.3675 16.9716 40.427 17.0612C40.4699 17.1196 40.5015 17.1864 40.52 17.2578C40.5385 17.3292 40.5435 17.4037 40.5348 17.4772C40.529 17.5495 40.5089 17.6197 40.476 17.6832C40.4431 17.7468 40.398 17.8024 40.3437 17.8464C40.3039 17.8787 40.2592 17.9034 40.2114 17.9192L40.0938 17.9608L26.119 20.982C26.0203 21.0141 25.9145 21.0122 25.8169 20.9767C25.7192 20.9413 25.6346 20.8739 25.5751 20.7844C25.5301 20.7273 25.4972 20.6606 25.4786 20.5888C25.46 20.5171 25.4561 20.4419 25.4673 20.3684C25.4731 20.2961 25.4931 20.2259 25.526 20.1623C25.5589 20.0988 25.604 20.0432 25.6584 19.9992Z" fill="#EB6719"/>
<path d="M31.2788 26.9205C31.28 26.8429 31.2916 26.7659 31.3131 26.6917C31.336 26.6104 31.3672 26.5319 31.4062 26.4577L33.7631 22.0689H31.3131C31.2329 22.0708 31.1533 22.0552 31.0791 22.023C31.0049 21.9908 30.9378 21.9427 30.8819 21.8817C30.8241 21.8238 30.7784 21.7535 30.748 21.6755C30.7176 21.5976 30.7031 21.5137 30.7055 21.4293C30.7045 21.3444 30.7196 21.2601 30.7499 21.1815C30.7802 21.1029 30.8251 21.0316 30.8819 20.9717C30.9378 20.9107 31.0049 20.8626 31.0791 20.8304C31.1533 20.7982 31.2329 20.7826 31.3131 20.7845H34.7431C34.8319 20.776 34.9213 20.7873 35.0057 20.8177C35.0902 20.8482 35.1676 20.8971 35.2331 20.9613C35.2922 21.0256 35.3379 21.1023 35.3675 21.1865C35.397 21.2707 35.4096 21.3605 35.4046 21.4501C35.4044 21.572 35.3862 21.693 35.3507 21.8089C35.316 21.9362 35.2667 22.0585 35.2037 22.1729L32.6557 27.0817C32.5892 27.2354 32.4862 27.368 32.3568 27.4665C32.2469 27.5454 32.117 27.5871 31.9844 27.5861C31.8071 27.5865 31.6347 27.5243 31.4944 27.4093C31.4236 27.3526 31.367 27.2785 31.3294 27.1933C31.2918 27.1081 31.2745 27.0145 31.2788 26.9205Z" fill="#EB6719"/>
</svg>
