<svg width="58" height="58" viewBox="0 0 58 58" fill="none" xmlns="http://www.w3.org/2000/svg">
<path d="M44.9569 46.7149L45.2491 40.7889V35.9583C45.2492 35.2654 44.9793 34.6002 44.4976 34.1063C44.0159 33.6124 43.3611 33.3294 42.6744 33.3183V33.3183C41.9956 33.3191 41.3448 33.5919 40.8651 34.0766V34.0766C40.8615 33.3789 40.5842 32.711 40.0939 32.2189C39.6036 31.7269 38.9402 31.4507 38.2486 31.4507H38.1234C37.4511 31.4773 36.8161 31.7699 36.3559 32.2651C36.2452 31.7691 35.988 31.3187 35.6183 30.9732C35.3613 30.7261 35.0574 30.534 34.725 30.4085C34.3925 30.283 34.0383 30.2267 33.6837 30.243C33.0464 30.2841 32.4444 30.5529 31.9858 31.0013V24.4294C31.9824 23.7362 31.7118 23.0716 31.2312 22.5762C30.7506 22.0808 30.0978 21.7936 29.411 21.7754V21.7754C28.7331 21.7807 28.084 22.0528 27.6018 22.5337C27.0942 23.0499 26.8049 23.7445 26.7946 24.4716V39.6796L25.0549 36.5481C24.8052 36.0945 24.4401 35.7161 23.9974 35.452C23.5546 35.1879 23.0502 35.0476 22.5358 35.0456C22.048 35.0539 21.5698 35.1842 21.1441 35.4247C20.479 35.8001 19.9883 36.4261 19.7797 37.1657C19.571 37.9052 19.6612 38.6981 20.0307 39.3707" stroke="#EB6719" stroke-width="2.22" stroke-linecap="round" stroke-linejoin="round"/>
<path d="M21.6033 42.5039L27.1703 53.5132C27.6651 54.2888 28.3479 54.9241 29.154 55.359C29.9601 55.794 30.8629 56.0142 31.7769 55.9988H39.2785C40.0189 56.0042 40.7523 55.8548 41.4326 55.56C42.1129 55.2651 42.7253 54.8312 43.231 54.2856C44.2453 53.1777 44.8027 51.7214 44.7898 50.2132" stroke="#EB6719" stroke-width="2.22" stroke-miterlimit="10" stroke-linecap="round"/>
<path d="M40.8235 34.0762V39.2298" stroke="#EB6719" stroke-width="2.22" stroke-miterlimit="10" stroke-linecap="round"/>
<path d="M36.3004 32.293V38.5981" stroke="#EB6719" stroke-width="2.22" stroke-miterlimit="10" stroke-linecap="round"/>
<path d="M31.9299 31.0176V37.9124" stroke="#EB6719" stroke-width="2.22" stroke-miterlimit="10" stroke-linecap="round"/>
<path d="M32.7374 18.5175C32.6608 16.5537 32.1808 14.6273 31.3279 12.8603C30.4751 11.0933 29.2679 9.52425 27.7828 8.25245C25.3205 6.30662 22.2209 5.37027 19.1039 5.63061C15.9869 5.89096 13.0822 7.32882 10.9705 9.6567C9.00587 11.8432 7.7941 14.6117 7.51571 17.5496C7.23733 20.4875 7.90726 23.4376 9.42567 25.9601C12.7659 31.3243 20.0865 32.1668 23.2318 30.889" stroke="#EB6719" stroke-width="2.22" stroke-miterlimit="10" stroke-linecap="round"/>
<path d="M14.8257 17.8275L18.8757 21.3662L25.5143 14.0781" stroke="#EB6719" stroke-width="2.22" stroke-miterlimit="10" stroke-linecap="round"/>
<path d="M31.0533 10.6953C35.1504 8.95831 39.5682 8.12523 44.0105 8.2519C44.0105 8.2519 44.776 3 49.7584 3C54.379 3 55.729 7.29701 54.6852 10.274C53.7806 12.8719 49.4383 16.0736 45.2353 11.4676" stroke="#EB6719" stroke-width="2.22" stroke-miterlimit="10" stroke-linecap="round"/>
<path d="M11.4715 28.4883C11.4715 28.4883 7.97823 33.9087 7.21277 44.8478" stroke="#EB6719" stroke-width="2.22" stroke-miterlimit="10" stroke-linecap="round"/>
<path d="M1.95203 50.6212C1.95203 50.6212 1.95204 46.5208 5.48708 45.3974C6.32062 45.1117 7.21243 45.0447 8.07872 45.2025C8.94502 45.3603 9.75734 45.7378 10.4393 46.2994C11.1212 46.8611 11.6503 47.5885 11.977 48.4133C12.3037 49.2381 12.4171 50.1332 12.3066 51.0144C12.2491 52.019 11.8966 52.9837 11.2939 53.7855C10.6912 54.5873 9.86566 55.1899 8.92236 55.5167C7.97906 55.8435 6.96072 55.8796 5.99701 55.6205C5.03329 55.3614 4.16779 54.8187 3.51078 54.0616" stroke="#EB6719" stroke-width="2.22" stroke-miterlimit="10" stroke-linecap="round"/>
</svg>
