<svg width="57" height="56" viewBox="0 0 57 56" fill="none" xmlns="http://www.w3.org/2000/svg">
<g clip-path="url(#clip0_3495:1739)">
<path d="M45.8655 46.6999C45.586 46.6851 45.3235 46.5598 45.1351 46.3512C44.9467 46.1425 44.8476 45.8674 44.8591 45.5855L45.1568 39.6994V35.0133C45.1531 34.6077 44.9927 34.2195 44.7094 33.9313C44.4262 33.6432 44.0426 33.4778 43.6402 33.4704C43.4406 33.4691 43.2426 33.5075 43.0578 33.5835C42.8729 33.6596 42.7048 33.7716 42.563 33.9133C42.4261 34.0503 42.2553 34.1478 42.0683 34.1955C41.8813 34.2433 41.685 34.2395 41.5 34.1847C41.2829 34.12 41.0925 33.9862 40.9571 33.8034C40.8217 33.6206 40.7486 33.3985 40.7488 33.1704C40.7498 32.8601 40.658 32.5568 40.4854 32.3C40.3128 32.0431 40.0674 31.8446 39.7813 31.7305C39.4951 31.6163 39.1814 31.5918 38.8812 31.6601C38.581 31.7283 38.3081 31.8862 38.0983 32.1131C37.9665 32.2518 37.8002 32.3522 37.6168 32.4039C37.4334 32.4555 37.2396 32.4566 37.0557 32.407C36.8717 32.3573 36.7044 32.2588 36.5711 32.1217C36.4379 31.9845 36.3436 31.8138 36.2982 31.6274C36.2225 31.3395 36.0706 31.0778 35.8588 30.8702C35.7086 30.7248 35.5307 30.6117 35.3357 30.538C35.1407 30.4644 34.9329 30.4315 34.7249 30.4416C34.354 30.4544 34.0028 30.6135 33.7469 30.8845C33.5946 31.0297 33.4045 31.1284 33.1987 31.1688C32.9929 31.2093 32.78 31.19 32.5847 31.1131C32.3896 31.0306 32.2234 30.8915 32.1073 30.7133C31.9911 30.5352 31.9303 30.3262 31.9327 30.113V23.5839C31.9327 23.1796 31.7753 22.7914 31.4944 22.5029C31.2134 22.2143 30.8313 22.0485 30.4303 22.041C30.0274 22.04 29.6403 22.1991 29.353 22.4839C29.2001 22.6345 29.0787 22.8146 28.996 23.0133C28.9132 23.2121 28.8708 23.4255 28.8711 23.6411V38.7136C28.8668 38.9479 28.7864 39.1743 28.6423 39.3581C28.4981 39.5419 28.2982 39.6731 28.073 39.7314C27.8479 39.7898 27.61 39.7721 27.3957 39.6812C27.1815 39.5903 27.0027 39.431 26.8868 39.2279L25.1576 36.1134C24.915 35.7069 24.5273 35.4094 24.074 35.2819C23.6206 35.1544 23.1361 35.2065 22.7197 35.4276C22.3059 35.6621 22.0007 36.0519 21.8706 36.5122C21.7405 36.9724 21.7961 37.4658 22.0252 37.885C22.0967 38.008 22.1431 38.1443 22.1616 38.2857C22.1802 38.427 22.1705 38.5707 22.1332 38.7083C22.096 38.8459 22.0319 38.9746 21.9446 39.0869C21.8574 39.1992 21.7488 39.2927 21.6252 39.3622C21.5016 39.4316 21.3655 39.4754 21.2249 39.4912C21.0843 39.5069 20.9419 39.4941 20.8063 39.4537C20.6706 39.4132 20.5443 39.3459 20.4348 39.2556C20.3252 39.1653 20.2347 39.0539 20.1685 38.9279C19.9154 38.4755 19.7538 37.9769 19.6931 37.4612C19.6325 36.9454 19.6738 36.4226 19.8149 35.9231C19.9559 35.4235 20.1938 34.9571 20.5148 34.5508C20.8358 34.1445 21.2336 33.8064 21.685 33.5561C22.5215 33.1075 23.4885 32.9719 24.4147 33.1733C25.3408 33.3747 26.1664 33.9 26.7451 34.6562V23.5839C26.7473 23.084 26.8473 22.5894 27.0395 22.1285C27.2316 21.6676 27.5121 21.2495 27.8648 20.898C28.544 20.2208 29.4607 19.8409 30.4161 19.8408C31.3836 19.8483 32.3095 20.239 32.9937 20.9287C33.6779 21.6183 34.0655 22.5515 34.0729 23.5268V28.3128L34.6257 28.2414C35.1237 28.2169 35.6215 28.2941 36.0892 28.4685C36.5568 28.6428 36.9847 28.9106 37.3471 29.2558C37.4888 29.4129 37.6305 29.5701 37.7581 29.7415C38.1649 29.5568 38.6023 29.4502 39.0479 29.4272H39.218C40.1578 29.4218 41.0628 29.7857 41.7409 30.4416C42.0475 30.7335 42.3016 31.0767 42.4921 31.4559C42.8572 31.3307 43.2404 31.268 43.626 31.2702C44.5949 31.2776 45.5222 31.6679 46.2087 32.3572C46.8951 33.0464 47.2859 33.9796 47.297 34.9562V39.7422L46.9994 45.6713C46.9921 45.8139 46.957 45.9537 46.896 46.0827C46.8351 46.2116 46.7495 46.3272 46.6442 46.4227C46.5388 46.5183 46.4158 46.592 46.2822 46.6395C46.1486 46.6871 46.007 46.7076 45.8655 46.6999Z" fill="#EB6719"/>
<path d="M40.2232 55.9434H32.782C31.7063 55.9541 30.6454 55.6898 29.6985 55.1751C28.7517 54.6604 27.9497 53.9122 27.3676 53.0004L27.2825 52.8575L21.613 41.9424C21.4988 41.6922 21.4845 41.4073 21.5731 41.1467C21.6618 40.8862 21.8466 40.6701 22.0891 40.5432C22.3317 40.4164 22.6134 40.3886 22.8758 40.4656C23.1381 40.5425 23.361 40.7184 23.4981 40.9566L29.1676 51.8717C29.5607 52.4735 30.0979 52.9657 30.7297 53.3028C31.3614 53.6399 32.0672 53.811 32.782 53.8004H40.2232C40.8176 53.7972 41.4047 53.6684 41.9467 53.4223C42.4887 53.1762 42.9735 52.8183 43.3698 52.3717C44.1915 51.4745 44.6382 50.2924 44.6171 49.0715C44.6171 48.7873 44.7291 48.5148 44.9284 48.3138C45.1278 48.1129 45.3982 48 45.6801 48C45.962 48 46.2324 48.1129 46.4317 48.3138C46.6311 48.5148 46.7431 48.7873 46.7431 49.0715C46.7636 50.837 46.1147 52.5438 44.9289 53.8433C44.3317 54.5029 43.605 55.0302 42.795 55.3918C41.9849 55.7533 41.1091 55.9412 40.2232 55.9434Z" fill="#EB6719"/>
<path d="M41.7563 39.2992C41.4744 39.2992 41.204 39.1863 41.0047 38.9854C40.8053 38.7845 40.6934 38.512 40.6934 38.2278V33.128C40.6934 32.8439 40.8053 32.5714 41.0047 32.3705C41.204 32.1695 41.4744 32.0566 41.7563 32.0566C42.0382 32.0566 42.3085 32.1695 42.5079 32.3705C42.7072 32.5714 42.8192 32.8439 42.8192 33.128V38.2278C42.8155 38.5108 42.7024 38.7812 42.5038 38.9813C42.3053 39.1814 42.037 39.2955 41.7563 39.2992Z" fill="#EB6719"/>
<path d="M37.2758 38.6555C36.9939 38.6555 36.7235 38.5427 36.5242 38.3417C36.3249 38.1408 36.2129 37.8683 36.2129 37.5841V31.3272C36.2129 31.0431 36.3249 30.7706 36.5242 30.5697C36.7235 30.3687 36.9939 30.2559 37.2758 30.2559C37.5577 30.2559 37.8281 30.3687 38.0274 30.5697C38.2267 30.7706 38.3387 31.0431 38.3387 31.3272V37.5841C38.335 37.8671 38.2219 38.1375 38.0233 38.3376C37.8248 38.5378 37.5566 38.6518 37.2758 38.6555Z" fill="#EB6719"/>
<path d="M32.938 37.9555C32.6561 37.9555 32.3857 37.8426 32.1863 37.6416C31.987 37.4407 31.875 37.1681 31.875 36.884V30.0549C31.875 29.7707 31.987 29.4982 32.1863 29.2972C32.3857 29.0963 32.6561 28.9834 32.938 28.9834C33.22 28.9834 33.4904 29.0963 33.6897 29.2972C33.8891 29.4982 34.0011 29.7707 34.0011 30.0549V36.884C34.0011 37.1681 33.8891 37.4407 33.6897 37.6416C33.4904 37.8426 33.22 37.9555 32.938 37.9555Z" fill="#EB6719"/>
<path d="M20.2689 31.1259C17.4908 31.1259 14.7751 30.2955 12.4652 28.7398C10.1553 27.1841 8.35499 24.9729 7.29186 22.3858C6.22874 19.7988 5.95058 16.952 6.49256 14.2056C7.03453 11.4592 8.37231 8.93647 10.3367 6.95641C12.3011 4.97636 14.8039 3.62792 17.5286 3.08162C20.2533 2.53533 23.0775 2.8157 25.6441 3.8873C28.2107 4.9589 30.4044 6.77359 31.9478 9.10189C33.4913 11.4302 34.3151 14.1675 34.3151 16.9677C34.3151 17.2519 34.2031 17.5245 34.0037 17.7254C33.8043 17.9263 33.534 18.0392 33.252 18.0392C32.9701 18.0392 32.6997 17.9263 32.5003 17.7254C32.301 17.5245 32.189 17.2519 32.189 16.9677C32.1918 14.5873 31.4939 12.2596 30.1836 10.2792C28.8733 8.29875 27.0096 6.75469 24.8283 5.84244C22.647 4.93019 20.2462 4.69076 17.9299 5.15446C15.6135 5.61816 13.4857 6.76416 11.8158 8.44737C10.146 10.1306 9.00906 12.2753 8.54902 14.6101C8.08899 16.945 8.32651 19.3649 9.23154 21.5635C10.1366 23.7622 11.6684 25.6408 13.6332 26.9615C15.598 28.2822 17.9073 28.9857 20.2689 28.9829C21.2238 28.98 22.1751 28.8649 23.1036 28.64C23.366 28.5989 23.6341 28.6583 23.8552 28.8065C24.0764 28.9547 24.2345 29.1809 24.2984 29.4406C24.3624 29.7004 24.3276 29.9749 24.2009 30.2101C24.0742 30.4453 23.8648 30.6242 23.6139 30.7116C22.5201 30.9882 21.3965 31.1273 20.2689 31.1259Z" fill="#EB6719"/>
<path d="M19.2199 21.2972C18.9627 21.2981 18.7147 21.2012 18.5254 21.0258L15.1095 17.9827C14.9986 17.8915 14.9067 17.779 14.8394 17.6517C14.7721 17.5244 14.7307 17.3848 14.7175 17.2412C14.7043 17.0975 14.7196 16.9526 14.7626 16.815C14.8056 16.6774 14.8753 16.5498 14.9678 16.4397C15.0607 16.3345 15.1734 16.2489 15.2993 16.1876C15.4251 16.1264 15.5618 16.0907 15.7013 16.0828C15.8409 16.0748 15.9806 16.0947 16.1125 16.1412C16.2445 16.1877 16.366 16.26 16.4702 16.354L19.0923 18.6827L24.3508 12.7251C24.5386 12.514 24.801 12.3853 25.0818 12.3666C25.3626 12.3479 25.6394 12.4407 25.8532 12.6251C25.9575 12.7189 26.0425 12.8324 26.1033 12.9593C26.1641 13.0862 26.1994 13.2239 26.2073 13.3646C26.2152 13.5052 26.1955 13.6461 26.1494 13.7791C26.1032 13.912 26.0314 14.0345 25.9382 14.1395L19.9711 20.9115C19.8798 21.0253 19.7656 21.1185 19.6362 21.1849C19.5068 21.2514 19.3649 21.2896 19.2199 21.2972Z" fill="#EB6719"/>
<path d="M7.24403 45.2285C7.10507 45.2266 6.96786 45.197 6.84037 45.1412C6.71288 45.0855 6.59765 45.0047 6.50138 44.9037C6.40511 44.8027 6.32975 44.6834 6.27962 44.5527C6.22948 44.4221 6.2056 44.2827 6.20937 44.1427C6.34367 37.9611 7.91667 31.8979 10.8017 26.4414C10.8644 26.3117 10.9526 26.1962 11.0607 26.1017C11.1689 26.0072 11.2948 25.9357 11.4311 25.8914C11.5673 25.8472 11.711 25.8312 11.8535 25.8443C11.9961 25.8574 12.1345 25.8994 12.2606 25.9677C12.3866 26.036 12.4977 26.1293 12.5871 26.242C12.6765 26.3546 12.7424 26.4843 12.7809 26.6233C12.8193 26.7622 12.8296 26.9076 12.811 27.0507C12.7924 27.1937 12.7453 27.3315 12.6726 27.4558C9.92071 32.6298 8.42462 38.3875 8.30706 44.257C8.28549 44.5247 8.16361 44.7742 7.96617 44.9546C7.76872 45.1351 7.51051 45.233 7.24403 45.2285Z" fill="#EB6719"/>
<path d="M31.0122 10.5539C30.7626 10.5576 30.5196 10.4726 30.326 10.3139C30.1323 10.1551 30.0002 9.93275 29.9529 9.6857C29.9056 9.43865 29.946 9.1827 30.0671 8.96269C30.1882 8.74267 30.3823 8.57261 30.6153 8.48235C35.175 6.62674 40.0419 5.65725 44.9591 5.625C45.2411 5.625 45.5114 5.73791 45.7108 5.93885C45.9102 6.1398 46.0222 6.41232 46.0222 6.69651C46.0222 6.98069 45.9102 7.25323 45.7108 7.45418C45.5114 7.65513 45.2411 7.76801 44.9591 7.76801C40.3113 7.79141 35.7095 8.69779 31.3948 10.4396C31.2769 10.5051 31.1464 10.544 31.0122 10.5539Z" fill="#EB6719"/>
<path d="M7.22824 55.7865C5.70523 55.7859 4.23432 55.2274 3.08949 54.2149C2.8771 54.0255 2.74809 53.7587 2.73082 53.4734C2.71354 53.188 2.8094 52.9075 2.99735 52.6934C3.18531 52.4793 3.44995 52.3493 3.73303 52.3318C4.01612 52.3144 4.29447 52.4111 4.50686 52.6005C5.26171 53.2733 6.23477 53.6443 7.24239 53.6435C8.07056 53.6463 8.88094 53.4011 9.57071 52.9391C10.2605 52.4771 10.7986 51.819 11.1168 51.0483C11.435 50.2776 11.5191 49.4291 11.3582 48.6102C11.1973 47.7913 10.7987 47.039 10.2131 46.4487C9.62752 45.8585 8.88122 45.4568 8.06882 45.2946C7.25641 45.1324 6.41452 45.2171 5.64992 45.5379C4.88531 45.8586 4.23244 46.401 3.77408 47.0963C3.31572 47.7916 3.0725 48.6084 3.0753 49.4432C3.0753 49.7273 2.96331 49.9999 2.76395 50.2008C2.56459 50.4018 2.2942 50.5147 2.01227 50.5147C1.73033 50.5147 1.45998 50.4018 1.26063 50.2008C1.06127 49.9999 0.949235 49.7273 0.949235 49.4432C0.946432 48.1845 1.31436 46.9534 2.00634 45.9057C2.69832 44.858 3.68325 44.0409 4.83634 43.558C5.98942 43.075 7.25877 42.9479 8.48359 43.1928C9.70841 43.4376 10.8336 44.0434 11.7165 44.9334C12.5994 45.8234 13.2004 46.9575 13.4434 48.1921C13.6863 49.4267 13.5602 50.7061 13.0811 51.8684C12.6019 53.0307 11.7913 54.0235 10.7519 54.721C9.71247 55.4185 8.49106 55.7893 7.24239 55.7865H7.22824Z" fill="#EB6719"/>
<path d="M50.1867 13.0687C48.6637 13.0681 47.1928 12.5096 46.048 11.4972C45.8374 11.3077 45.7103 11.0417 45.6943 10.7577C45.6784 10.4737 45.775 10.195 45.9629 9.98277C46.1509 9.77058 46.4148 9.64235 46.6965 9.62627C46.9783 9.6102 47.2548 9.70759 47.4653 9.89705C48.1824 10.5338 49.0943 10.9037 50.049 10.9452C51.0037 10.9867 51.9438 10.6974 52.7126 10.1253C53.4814 9.55318 54.0326 8.73289 54.2744 7.80099C54.5162 6.8691 54.434 5.88183 54.0415 5.00357C53.6491 4.12532 52.9699 3.40908 52.1173 2.97412C51.2647 2.53915 50.29 2.41171 49.3554 2.613C48.4209 2.8143 47.583 3.33219 46.9812 4.08044C46.3794 4.82869 46.05 5.76215 46.048 6.72539C46.048 7.00957 45.936 7.28212 45.7366 7.48306C45.5372 7.68401 45.2669 7.7969 44.9849 7.7969C44.703 7.7969 44.4326 7.68401 44.2332 7.48306C44.0339 7.28212 43.9219 7.00957 43.9219 6.72539C43.9191 5.46676 44.287 4.23562 44.979 3.18793C45.6709 2.14024 46.6559 1.32316 47.8089 0.840196C48.962 0.357234 50.2314 0.230129 51.4562 0.474983C52.6811 0.719837 53.8062 1.32563 54.6892 2.21561C55.5721 3.1056 56.1731 4.23974 56.416 5.47432C56.6589 6.7089 56.5329 7.98838 56.0537 9.15067C55.5746 10.3129 54.7639 11.3057 53.7245 12.0032C52.6851 12.7007 51.4637 13.0715 50.215 13.0687H50.1867Z" fill="#EB6719"/>
</g>
<defs>
<clipPath id="clip0_3495:1739">
<rect width="55.5611" height="55.5611" fill="white" transform="translate(0.935547 0.367188)"/>
</clipPath>
</defs>
</svg>
