<svg width="17" height="17" viewBox="0 0 17 17" fill="none" xmlns="http://www.w3.org/2000/svg">
<path d="M16.4154 8.50065C16.4154 10.6003 15.5813 12.6139 14.0966 14.0986C12.612 15.5832 10.5983 16.4173 8.4987 16.4173C6.39907 16.4173 4.38543 15.5832 2.90077 14.0986C1.41611 12.6139 0.582031 10.6003 0.582031 8.50065C0.582031 6.40102 1.41611 4.38739 2.90077 2.90272C4.38543 1.41806 6.39907 0.583984 8.4987 0.583984C10.5983 0.583984 12.612 1.41806 14.0966 2.90272C15.5813 4.38739 16.4154 6.40102 16.4154 8.50065ZM7.70703 9.29232V11.6673C7.70703 11.8773 7.79044 12.0786 7.93891 12.2271C8.08737 12.3756 8.28874 12.459 8.4987 12.459C8.70866 12.459 8.91002 12.3756 9.05849 12.2271C9.20696 12.0786 9.29037 11.8773 9.29037 11.6673V9.29232C9.29037 9.08236 9.20696 8.88099 9.05849 8.73253C8.91002 8.58406 8.70866 8.50065 8.4987 8.50065C8.28874 8.50065 8.08737 8.58406 7.93891 8.73253C7.79044 8.88099 7.70703 9.08236 7.70703 9.29232ZM8.4987 4.93815C8.18375 4.93815 7.88171 5.06326 7.65901 5.28596C7.43631 5.50866 7.3112 5.81071 7.3112 6.12565C7.3112 6.4406 7.43631 6.74264 7.65901 6.96534C7.88171 7.18804 8.18375 7.31315 8.4987 7.31315C8.81364 7.31315 9.11569 7.18804 9.33839 6.96534C9.56109 6.74264 9.6862 6.4406 9.6862 6.12565C9.6862 5.81071 9.56109 5.50866 9.33839 5.28596C9.11569 5.06326 8.81364 4.93815 8.4987 4.93815Z" fill="#00AEC7"/>
</svg>
