<svg width="64" height="64" viewBox="0 0 64 64" fill="none" xmlns="http://www.w3.org/2000/svg">
<path d="M48 35C52.8758 34.1436 56 32.8443 56 31.3826V24" stroke="#EB6719" stroke-width="2.4" stroke-linecap="round" stroke-linejoin="round"/>
<path d="M48 42C52.8758 41.1573 56 39.8562 56 38.3925V31" stroke="#EB6719" stroke-width="2.4" stroke-linecap="round" stroke-linejoin="round"/>
<path d="M3 49.6776L9.99307 52.8874C12.4383 54.0185 18.4345 46.4983 23.4029 36.0739C28.3712 25.6495 30.4115 16.3409 27.9662 15.2098L20.9732 12" stroke="#EB6719" stroke-width="2.4" stroke-linecap="round" stroke-linejoin="round"/>
<path d="M27 27.6686C29.7462 27.8953 32.5044 28.0058 35.264 27.9998C46.7145 27.9998 56 26.2164 56 24" stroke="#EB6719" stroke-width="2.4" stroke-linecap="round" stroke-linejoin="round"/>
<path d="M18.7237 27.759C18.0405 29.4606 17.2797 31.2236 16.4258 33.0325C11.4729 43.4568 5.55744 50.9838 3.05772 49.8954C0.558002 48.807 2.65407 39.3944 7.60693 28.9701C12.5598 18.5458 18.4752 11.0035 20.975 12.1072C22.3413 12.7358 22.2947 15.9857 21.1147 20.5693" stroke="#EB6719" stroke-width="2.4" stroke-linecap="round" stroke-linejoin="round"/>
<path d="M24 35C27.5665 35.6876 31.1639 36.0215 34.7647 35.9989C36.2353 35.9989 37.6324 35.9989 39 35.8562" stroke="#EB6719" stroke-width="2.4" stroke-linecap="round" stroke-linejoin="round"/>
<path d="M20 42C24.7967 42.7064 29.6846 43.0404 34.58 42.9961C36.1147 42.9961 37.5727 42.9961 39 42.9186" stroke="#EB6719" stroke-width="2.4" stroke-linecap="round" stroke-linejoin="round"/>
<path d="M17 47.5528C20.4887 49.027 27.3594 50 35.2812 50C46.7223 50 56 47.9214 56 45.371V38" stroke="#EB6719" stroke-width="2.4" stroke-linecap="round" stroke-linejoin="round"/>
<path d="M29 19.1916C30.9231 19.0737 32.9693 19 35.0769 19C46.6308 19 56 21.0639 56 23.629V31" stroke="#EB6719" stroke-width="2.4" stroke-linecap="round" stroke-linejoin="round"/>
</svg>
