<svg width="84" height="84" viewBox="0 0 84 84" fill="none" xmlns="http://www.w3.org/2000/svg">
<path d="M58.1533 60.3261V67.5585C58.1489 69.0698 57.5466 70.5179 56.4779 71.5866C55.4092 72.6553 53.9611 73.2576 52.4498 73.2621H27.611C26.0996 73.2576 24.6514 72.6553 23.5828 71.5866C22.5141 70.5179 21.9118 69.0698 21.9073 67.5585V19.0737C21.9139 17.563 22.517 16.1161 23.5852 15.0479C24.6534 13.9797 26.1003 13.3767 27.611 13.3701H52.4498C53.9604 13.3767 55.4072 13.9797 56.4754 15.0479C57.5436 16.1161 58.1467 17.563 58.1533 19.0737V35.8737" stroke="#EB6719" stroke-width="2.4" stroke-miterlimit="10" stroke-linecap="round"/>
<path d="M54.1129 60.9057V67.3569C54.1129 67.6135 54.0622 67.8676 53.9637 68.1046C53.8653 68.3416 53.721 68.5568 53.5391 68.7378C53.3573 68.9189 53.1415 69.0623 52.9041 69.1597C52.6666 69.2572 52.4123 69.3068 52.1557 69.3057H27.9049C27.6483 69.3068 27.394 69.2572 27.1565 69.1597C26.9191 69.0623 26.7033 68.9189 26.5214 68.7378C26.3396 68.5568 26.1953 68.3416 26.0968 68.1046C25.9983 67.8676 25.9477 67.6135 25.9477 67.3569V22.2321C25.9477 21.975 25.9983 21.7205 26.0967 21.4831C26.195 21.2456 26.3392 21.0299 26.5209 20.8481C26.7026 20.6664 26.9184 20.5222 27.1559 20.4238C27.3933 20.3255 27.6479 20.2749 27.9049 20.2749H52.1557C52.6748 20.2749 53.1726 20.4811 53.5396 20.8481C53.9067 21.2152 54.1129 21.713 54.1129 22.2321V35.3193" stroke="#EB6719" stroke-width="2" stroke-miterlimit="10" stroke-linecap="round"/>
<path d="M35.8764 16.8981H44.184" stroke="#EB6719" stroke-width="2" stroke-miterlimit="10" stroke-linecap="round"/>
<path d="M47.9305 37.0245C50.6578 35.4524 53.8691 34.9417 56.9494 35.5902C60.0298 36.2388 62.7626 38.001 64.6244 40.5392C66.4862 43.0775 67.3461 46.2134 67.0394 49.3464C66.7327 52.4793 65.281 55.3889 62.9623 57.5179C60.6436 59.647 57.6209 60.8457 54.4733 60.8846C51.3256 60.9235 48.2743 59.7997 45.9037 57.7286C43.5331 55.6574 42.01 52.7845 41.6261 49.6601C41.2421 46.5358 42.0244 43.3796 43.8229 40.7961" stroke="#EB6719" stroke-width="2.4" stroke-linecap="round" stroke-linejoin="round"/>
<path d="M54.1129 40.3007V41.7707" stroke="#EB6719" stroke-width="2.4" stroke-miterlimit="10" stroke-linecap="round"/>
<path d="M54.1129 54.5299V56.3107" stroke="#EB6719" stroke-width="2.4" stroke-miterlimit="10" stroke-linecap="round"/>
<path d="M50.694 52.2874C52.0212 53.6566 57.414 54.4882 58.0188 51.2626C58.7748 46.9786 50.1816 49.801 51.0468 44.9038C51.5508 42.0142 56.6412 42.703 57.5484 43.795" stroke="#EB6719" stroke-width="2.4" stroke-miterlimit="10" stroke-linecap="round"/>
</svg>
