<svg width="64" height="64" viewBox="0 0 64 64" fill="none" xmlns="http://www.w3.org/2000/svg">
<path d="M16.2392 11.7107C14.4993 11.851 12.75 11.8185 11.0163 11.6138V33.98C11.0163 33.98 9.65476 48.1801 31.8445 56.9925C31.8944 57.0025 31.9458 57.0025 31.9958 56.9925C32.046 56.9985 32.0968 56.9985 32.147 56.9925C54.3606 48.1801 52.9832 33.98 52.9832 33.98V11.6138C42.2108 12.9062 33.198 6.88852 32.0595 6.08886V6L31.9958 6.04846L31.9321 6V6.08886C29.5449 7.69797 26.9659 8.99264 24.2569 9.94176C23.4607 10.2164 22.6645 10.4749 21.8205 10.7091" stroke="#EB6719" stroke-width="2.4" stroke-linecap="round" stroke-linejoin="round"/>
<path d="M24.3225 27H38.6775C39.0282 27 39.3646 27.1425 39.6127 27.3961C39.8607 27.6498 40 27.9938 40 28.3525V39.4918C39.9958 40.6861 39.53 41.8303 38.7042 42.6748C37.8784 43.5193 36.7596 43.9957 35.5917 44H27.4083C26.2404 43.9957 25.1216 43.5193 24.2958 42.6748C23.47 41.8303 23.0042 40.6861 23 39.4918V28.3525C23 27.9938 23.1393 27.6498 23.3873 27.3961C23.6354 27.1425 23.9718 27 24.3225 27V27Z" stroke="#EB6719" stroke-width="2.4" stroke-miterlimit="10" stroke-linecap="round"/>
<path d="M26 27V22.8644C26.0133 21.5783 26.5486 20.3484 27.4912 19.4389C28.4337 18.5294 29.7082 18.0128 31.041 18H32.959C34.2918 18.0128 35.5663 18.5294 36.5088 19.4389C37.4514 20.3484 37.9867 21.5783 38 22.8644" stroke="#EB6719" stroke-width="2.4" stroke-miterlimit="10" stroke-linecap="round"/>
<path d="M31.7702 32.0132C32.0504 31.9808 32.3342 32.0081 32.6031 32.0931C32.872 32.1782 33.12 32.3192 33.3305 32.5068C33.5411 32.6944 33.7096 32.9244 33.825 33.1818C33.9404 33.4391 34 33.718 34 34C34 34.282 33.9404 34.5609 33.825 34.8182C33.7096 35.0756 33.5411 35.3056 33.3305 35.4933C33.12 35.6809 32.872 35.8219 32.6031 35.9069C32.3342 35.992 32.0504 36.0192 31.7702 35.9867C31.2828 35.9304 30.8331 35.6968 30.5067 35.3305C30.1803 34.9642 30 34.4906 30 34C30 33.5094 30.1803 33.0358 30.5067 32.6695C30.8331 32.3032 31.2828 32.0696 31.7702 32.0132V32.0132Z" stroke="#EB6719" stroke-width="2.4" stroke-miterlimit="10" stroke-linecap="round"/>
<path d="M32 39V36" stroke="#EB6719" stroke-width="2.4" stroke-miterlimit="10" stroke-linecap="round"/>
</svg>
