<svg width="64" height="64" viewBox="0 0 64 64" fill="none" xmlns="http://www.w3.org/2000/svg">
<path d="M49 24C53.274 23.302 56 22.2327 56 21.0297V15" stroke="#EB6719" stroke-width="2.4" stroke-linecap="round" stroke-linejoin="round"/>
<path d="M49 30C53.274 29.2883 56 28.2208 56 27.0346V21" stroke="#EB6719" stroke-width="2.4" stroke-linecap="round" stroke-linejoin="round"/>
<path d="M13 36.226L18.6471 38.9082C20.6267 39.8385 25.4758 33.5902 29.4809 24.9542C33.4861 16.3182 35.1434 8.53502 33.1638 7.66677L27.5167 5" stroke="#EB6719" stroke-width="2.4" stroke-linecap="round" stroke-linejoin="round"/>
<path d="M32 18.6732C34.0883 18.8755 36.4069 19 38.833 19C48.3225 18.9689 56 17.2101 56 15" stroke="#EB6719" stroke-width="2.4" stroke-linecap="round" stroke-linejoin="round"/>
<path d="M25.3686 17.8685C24.8377 19.2575 24.2159 20.6922 23.5335 22.1728C19.5752 30.6744 14.7828 36.8255 12.8264 35.9097C10.87 34.9939 12.5079 27.347 16.4662 18.8301C20.4245 10.3132 25.2169 4.16213 27.1733 5.09319C28.2804 5.61214 28.2349 8.26794 27.2795 12.0074" stroke="#EB6719" stroke-width="2.4" stroke-linecap="round" stroke-linejoin="round"/>
<path d="M30 24C32.8566 24.6941 35.7384 25.0277 38.6227 24.9982C39.7868 24.9982 40.9078 24.9982 42 24.8735" stroke="#EB6719" stroke-width="2.4" stroke-linecap="round" stroke-linejoin="round"/>
<path d="M27 30C30.7917 30.7097 34.6549 31.0434 38.5237 30.9955C39.7219 30.9955 40.8757 30.9955 42 30.9273" stroke="#EB6719" stroke-width="2.4" stroke-linecap="round" stroke-linejoin="round"/>
<path d="M49 36C53.2572 35.2257 56 34.0395 56 32.7051V26" stroke="#EB6719" stroke-width="2.4" stroke-linecap="round" stroke-linejoin="round"/>
<path d="M34 10.1823C35.5257 10.0663 37.2191 10 38.9431 10C48.3717 10 56 11.988 56 14.2741V21" stroke="#EB6719" stroke-width="2.4" stroke-linecap="round" stroke-linejoin="round"/>
<path d="M40.9918 43.6853L51.7297 37.3894C52.5611 36.9677 53.5192 36.8851 54.4084 37.1583C55.2976 37.4315 56.0508 38.0399 56.5141 38.8593C56.9775 39.6786 57.116 40.6472 56.9014 41.567C56.6867 42.4868 56.1352 43.2885 55.3594 43.8084L39.676 52.9213C38.9467 53.3405 38.1241 53.5631 37.2865 53.5679H25.3841C24.5066 53.5693 23.6454 53.8084 22.8886 54.2605L20 56" stroke="#EB6719" stroke-width="2.4" stroke-linecap="round" stroke-linejoin="round"/>
<path d="M27.8172 45H37.2841C38.2684 44.9962 39.2112 44.6254 39.9072 43.9685C40.6032 43.3116 40.9959 42.4217 41 41.4927C40.9959 40.5651 40.6026 39.6767 39.9062 39.0221C39.2098 38.3675 38.267 38 37.2841 38H23.8546C22.9529 37.9996 22.0681 38.231 21.2952 38.6694L13 43.3992" stroke="#EB6719" stroke-width="2.4" stroke-linecap="round" stroke-linejoin="round"/>
<path d="M7 44.4242L11.1213 42L21 57.3788L18.5458 59" stroke="#EB6719" stroke-width="2.4" stroke-linecap="round" stroke-linejoin="round"/>
</svg>
