<svg width="23" height="23" viewBox="0 0 23 23" fill="none" xmlns="http://www.w3.org/2000/svg">
<path d="M11.8728 0.547058C5.77795 0.547058 0.836853 5.48815 0.836853 11.583C0.836853 17.6779 5.77795 22.619 11.8728 22.619C17.9677 22.619 22.9088 17.6779 22.9088 11.583C22.9088 5.48815 17.9677 0.547058 11.8728 0.547058ZM11.8728 20.7796C6.79377 20.7796 2.67619 16.6621 2.67619 11.583C2.67619 6.50398 6.79377 2.3864 11.8728 2.3864C16.9519 2.3864 21.0694 6.50398 21.0694 11.583C21.0694 16.6621 16.9519 20.7796 11.8728 20.7796Z" fill="black"/>
<path d="M10.684 6.33454C10.3249 5.9754 9.74257 5.9754 9.38343 6.33454C9.02429 6.69369 9.02429 7.27601 9.38343 7.63515L13.3315 11.5832L9.38343 15.5312C9.02429 15.8904 9.02429 16.4727 9.38343 16.8318C9.74257 17.191 10.3249 17.191 10.684 16.8318L15.2824 12.2335C15.6415 11.8743 15.6415 11.292 15.2824 10.9329L10.684 6.33454Z" fill="black"/>
</svg>
