<svg width="22" height="20" viewBox="0 0 22 20" fill="none" xmlns="http://www.w3.org/2000/svg">
<path d="M11.9898 0.57637L14.5023 5.42313C14.5844 5.58123 14.7053 5.71815 14.8548 5.82229C15.0042 5.92644 15.1778 5.99476 15.3609 6.02145L20.9794 6.80087C21.1893 6.83263 21.3859 6.91905 21.5475 7.0506C21.7091 7.18214 21.8293 7.35369 21.8949 7.54626C21.9605 7.73883 21.9689 7.94493 21.9192 8.14178C21.8695 8.33862 21.7636 8.51854 21.6133 8.66165L17.5507 12.4326C17.4183 12.5565 17.3193 12.7091 17.2621 12.8772C17.2049 13.0454 17.1912 13.2243 17.2222 13.3986L18.1788 18.7284C18.2125 18.9284 18.1874 19.1333 18.1064 19.3205C18.0254 19.5077 17.8916 19.6699 17.7198 19.7892C17.5481 19.9085 17.345 19.9803 17.1331 19.9965C16.9212 20.0127 16.7087 19.9728 16.5192 19.8811L11.4942 17.3617C11.3296 17.2799 11.1468 17.2372 10.9612 17.2372C10.7756 17.2372 10.5927 17.2799 10.4281 17.3617L5.40316 19.8811C5.2136 19.9728 5.00114 20.0127 4.78924 19.9965C4.57734 19.9803 4.37427 19.9085 4.2025 19.7892C4.03073 19.6699 3.89696 19.5077 3.81596 19.3205C3.73496 19.1333 3.70989 18.9284 3.74354 18.7284L4.70015 13.3986C4.73111 13.2243 4.71742 13.0454 4.66023 12.8772C4.60304 12.7091 4.50405 12.5565 4.37168 12.4326L0.33788 8.66165C0.18753 8.51854 0.0816526 8.33862 0.0319545 8.14178C-0.0177435 7.94493 -0.00934243 7.73883 0.0562583 7.54626C0.121859 7.35369 0.24212 7.18214 0.403687 7.0506C0.565253 6.91905 0.761832 6.83263 0.971748 6.80087L6.59025 6.02145C6.77331 5.99476 6.94692 5.92644 7.09638 5.82229C7.24584 5.71815 7.36678 5.58123 7.4489 5.42313L9.96138 0.57637C10.0601 0.402093 10.2065 0.2565 10.3851 0.155031C10.5636 0.0535622 10.7677 0 10.9756 0C11.1835 0 11.3875 0.0535622 11.5661 0.155031C11.7446 0.2565 11.8911 0.402093 11.9898 0.57637Z" fill="#EB6719"/>
</svg>
