<svg width="86" height="86" viewBox="0 0 86 86" fill="none" xmlns="http://www.w3.org/2000/svg">
<g clip-path="url(#clip0_653_213353)">
<path d="M43.0001 86.0004C31.5957 86.0004 20.6585 81.4701 12.5945 73.4061C4.53039 65.342 0 54.4048 0 43.0005C0 31.5961 4.53039 20.6589 12.5945 12.5949C20.6585 4.53079 31.5957 0.000397132 43.0001 0.000397132C52.484 -0.0406132 61.7084 3.09569 69.2018 8.90899C69.6287 9.27124 69.9001 9.7837 69.96 10.3404C70.0199 10.8971 69.8637 11.4555 69.5236 11.9003C69.1835 12.345 68.6856 12.6421 68.1326 12.7302C67.5797 12.8182 67.0141 12.6905 66.5526 12.3735C59.824 7.15556 51.5438 4.33744 43.0292 4.36736C34.9436 4.3679 27.0619 6.90534 20.4946 11.6222C13.9274 16.339 9.00573 22.9975 6.42286 30.6595C3.83999 38.3214 3.72616 46.6007 6.0975 54.3307C8.46884 62.0608 13.2059 68.852 19.641 73.7475C26.0761 78.643 33.885 81.3961 41.9675 81.6188C50.05 81.8415 57.9988 79.5227 64.6938 74.989C71.3887 70.4553 76.4924 63.9353 79.2858 56.3476C82.0793 48.7599 82.4217 40.487 80.2647 32.6944C80.1103 32.1346 80.1846 31.5364 80.4712 31.0314C80.7579 30.5264 81.2335 30.1559 81.7933 30.0015C82.353 29.8471 82.9512 29.9213 83.4563 30.208C83.9613 30.4946 84.3317 30.9701 84.4862 31.5299C86.2415 37.9159 86.5002 44.6208 85.2419 51.123C83.9836 57.6253 81.2422 63.7496 77.2312 69.0197C73.2202 74.2898 68.0475 78.5637 62.1155 81.5088C56.1834 84.4539 49.6521 85.991 43.0292 86.0004H43.0001Z" fill="#ED1C24"/>
<path d="M28.9966 70.7159C28.7136 70.7201 28.433 70.6654 28.1723 70.5551C27.9117 70.4448 27.6767 70.2815 27.4827 70.0754C27.0738 69.666 26.8442 69.1111 26.8442 68.5324C26.8442 67.9538 27.0738 67.3989 27.4827 66.9895L75.1118 18.5453C75.5212 18.1364 76.0761 17.9067 76.6547 17.9067C77.2333 17.9067 77.7884 18.1364 78.1978 18.5453C78.6067 18.9547 78.8362 19.5097 78.8362 20.0884C78.8362 20.667 78.6067 21.2219 78.1978 21.6313L30.5687 70.0754C30.3617 70.2804 30.1163 70.4425 29.8465 70.5524C29.5767 70.6624 29.2879 70.7179 28.9966 70.7159Z" fill="#ED1C24"/>
<path d="M65.6796 64.5141C65.1149 64.5138 64.5724 64.2947 64.1658 63.9028L21.5151 22.5913C21.2407 22.422 21.0073 22.1939 20.8315 21.9237C20.6557 21.6534 20.5421 21.3476 20.4985 21.0281C20.455 20.7086 20.4827 20.3835 20.5797 20.076C20.6768 19.7685 20.8408 19.4864 21.0599 19.2498C21.2789 19.0133 21.5476 18.8281 21.8467 18.7077C22.1458 18.5873 22.4678 18.5347 22.7897 18.5535C23.1116 18.5724 23.4252 18.6623 23.7082 18.8168C23.9912 18.9713 24.2365 19.1866 24.4264 19.4472L67.0771 60.7877C67.3951 61.0854 67.6152 61.4727 67.7086 61.8981C67.8021 62.3236 67.7644 62.7674 67.6004 63.171C67.4365 63.5746 67.154 63.9191 66.7903 64.1588C66.4266 64.3986 65.9987 64.5225 65.5632 64.5141H65.6796Z" fill="#ED1C24"/>
</g>
<defs>
<clipPath id="clip0_653_213353">
<rect width="86" height="86" fill="white"/>
</clipPath>
</defs>
</svg>
