<svg width="143" height="143" viewBox="0 0 143 143" fill="none" xmlns="http://www.w3.org/2000/svg">
<path d="M81.5098 78.6495L50.0498 47.1895" stroke="#FFAF00" stroke-width="3" stroke-linecap="round" stroke-linejoin="round"/>
<path d="M72.7093 42.6814C75.8223 41.8795 79.0238 41.4727 82.2384 41.4707C90.1148 41.4735 97.7946 43.9304 104.21 48.4999C110.625 53.0694 115.457 59.5244 118.034 66.9672C120.611 74.4101 120.805 82.4711 118.589 90.0292C116.372 97.5873 111.856 104.267 105.668 109.139C99.4792 114.012 91.9263 116.835 84.0592 117.216C76.192 117.597 68.4016 115.518 61.7711 111.267C55.1406 107.015 49.9995 100.803 47.0627 93.495C44.126 86.1866 43.5395 78.1447 45.3848 70.4875" stroke="#FFAF00" stroke-width="3" stroke-linecap="round" stroke-linejoin="round"/>
<path d="M50.0132 47.1902L52.9102 38.3391L40.0771 25.7402L37.1802 34.5913" stroke="#FFAF00" stroke-width="3" stroke-linecap="round" stroke-linejoin="round"/>
<path d="M50.0498 46.9791L41.0772 50.0503L28.5998 37.3915L37.5724 34.3203" stroke="#FFAF00" stroke-width="3" stroke-linecap="round" stroke-linejoin="round"/>
<path d="M75.0685 53.7447C77.1658 53.1875 79.3269 52.907 81.497 52.9102C86.589 52.9076 91.5673 54.4154 95.8022 57.2427C100.037 60.0701 103.338 64.09 105.288 68.7939C107.238 73.4978 107.749 78.6743 106.756 83.6686C105.763 88.6629 103.312 93.2505 99.7109 96.8511C96.1103 100.452 91.5227 102.903 86.5284 103.896C81.5341 104.889 76.3576 104.378 71.6537 102.428C66.9498 100.479 62.9299 97.1773 60.1025 92.9424C57.2752 88.7075 55.7674 83.7291 55.77 78.6371C55.7691 76.612 56.0098 74.594 56.4872 72.6259" stroke="#FFAF00" stroke-width="3" stroke-linecap="round" stroke-linejoin="round"/>
<path d="M79.9496 65.9873C80.7004 65.8519 81.4616 65.7823 82.2246 65.7793C84.9114 65.7793 87.5379 66.5761 89.772 68.0688C92.006 69.5616 93.7473 71.6832 94.7755 74.1655C95.8037 76.6479 96.0727 79.3794 95.5485 82.0146C95.0244 84.6498 93.7305 87.0705 91.8306 88.9704C89.9307 90.8703 87.5101 92.1641 84.8749 92.6883C82.2396 93.2124 79.5081 92.9434 77.0258 91.9152C74.5435 90.887 72.4218 89.1458 70.929 86.9117C69.4363 84.6777 68.6396 82.0512 68.6396 79.3643C68.6425 78.6014 68.7121 77.8401 68.8476 77.0893" stroke="#FFAF00" stroke-width="3" stroke-linecap="round" stroke-linejoin="round"/>
</svg>
