<svg width="143" height="143" viewBox="0 0 143 143" fill="none" xmlns="http://www.w3.org/2000/svg">
<path d="M48.7461 38.6094C48.7461 46.6608 46.5955 59.7712 60.0652 67.1248C60.0652 67.1248 62.9201 68.7216 62.9201 71.4994" stroke="#FFAF00" stroke-width="3" stroke-linecap="round" stroke-linejoin="round"/>
<path d="M48.7461 104.39C48.7461 96.3353 46.5955 83.2196 60.0652 75.863C60.0652 75.863 62.9201 74.2789 62.9201 71.5" stroke="#FFAF00" stroke-width="3" stroke-linecap="round" stroke-linejoin="round"/>
<path d="M94.2523 38.6094C94.2523 46.6608 96.4172 59.7712 82.9245 67.1248C82.9245 67.1248 80.0801 68.7216 80.0801 71.4994" stroke="#FFAF00" stroke-width="3" stroke-linecap="round" stroke-linejoin="round"/>
<path d="M94.2523 104.39C94.2523 96.3353 96.4172 83.2196 82.9245 75.863C82.9245 75.863 80.0801 74.2789 80.0801 71.5" stroke="#FFAF00" stroke-width="3" stroke-linecap="round" stroke-linejoin="round"/>
<path d="M57.5656 37.1809H44.3431C43.5821 37.1775 42.8533 36.875 42.3152 36.3394C41.7771 35.8038 41.4732 35.0784 41.4697 34.3209C41.4767 33.5646 41.7816 32.8411 42.319 32.3063C42.8563 31.7714 43.5832 31.4678 44.3431 31.4609H98.6564C99.4174 31.4644 100.146 31.7669 100.684 32.3025C101.222 32.8381 101.526 33.5635 101.53 34.3209V34.3209C101.53 35.0795 101.227 35.8069 100.688 36.3433C100.149 36.8796 99.4184 37.1809 98.6564 37.1809H71.5995" stroke="#FFAF00" stroke-width="3" stroke-linecap="round" stroke-linejoin="round"/>
<path d="M53.7345 105.82H44.3431C43.5821 105.824 42.8533 106.126 42.3152 106.662C41.7771 107.197 41.4732 107.923 41.4697 108.68C41.4732 109.438 41.7771 110.163 42.3152 110.699C42.8533 111.234 43.5821 111.537 44.3431 111.54H98.6564C99.4184 111.54 100.149 111.239 100.688 110.703C101.227 110.166 101.53 109.439 101.53 108.68C101.53 107.922 101.227 107.194 100.688 106.658C100.149 106.122 99.4184 105.82 98.6564 105.82H67.8349" stroke="#FFAF00" stroke-width="3" stroke-linecap="round" stroke-linejoin="round"/>
<path d="M72.1033 64.3501C69.0643 64.3698 66.1049 63.4496 63.6937 61.735C63.4498 61.5803 63.2513 61.3717 63.1163 61.128C62.9813 60.8843 62.914 60.6133 62.9205 60.3394C62.9141 60.116 62.9593 59.8939 63.0528 59.688C63.1464 59.482 63.2863 59.2969 63.4631 59.145C63.6405 58.9811 63.8526 58.8528 64.086 58.7685C64.3194 58.6841 64.5691 58.6454 64.8195 58.6547C65.234 58.629 65.6443 58.7454 65.9724 58.9816C66.8666 59.6375 67.8579 60.171 68.9158 60.5657C69.9807 60.9427 71.1126 61.1304 72.2524 61.1189C73.2743 61.164 74.2854 60.9088 75.1415 60.3897C75.4752 60.1828 75.7479 59.9019 75.935 59.5726C76.1221 59.2433 76.2177 58.876 76.213 58.5038V58.4409C76.2166 58.1047 76.1475 57.7713 76.0096 57.4603C75.8336 57.1264 75.5672 56.8405 75.2365 56.6305C74.7626 56.329 74.2471 56.0879 73.7038 55.9139C72.8667 55.6546 72.0156 55.4364 71.1538 55.2601C70.0713 55.0383 69.0063 54.7485 67.9663 54.3926C67.1199 54.0942 66.3318 53.6695 65.6333 53.1353C64.9936 52.6828 64.4779 52.097 64.1277 51.4255C63.7677 50.6658 63.5962 49.8408 63.6259 49.0115V48.9487C63.613 48.1006 63.8127 47.2614 64.2091 46.497C64.5828 45.7647 65.1244 45.1169 65.796 44.5986C66.5118 44.047 67.33 43.621 68.2104 43.3413C69.2001 43.0429 70.2352 42.8943 71.2759 42.9012C72.579 42.8869 73.8772 43.0522 75.128 43.3916C76.2861 43.7216 77.387 44.2044 78.3969 44.8248C78.6437 44.9588 78.8492 45.1493 78.9937 45.378C79.1737 45.6497 79.2634 45.9646 79.2514 46.2833C79.265 46.5168 79.2234 46.7503 79.1297 46.9674C79.036 47.1845 78.8924 47.3801 78.7088 47.5405C78.5314 47.7045 78.3194 47.8327 78.0859 47.9171C77.8525 48.0015 77.6028 48.0402 77.3524 48.0308C76.9915 48.0329 76.6378 47.9367 76.3352 47.7542C75.5215 47.2839 74.6579 46.8921 73.758 46.585C72.9292 46.3184 72.0582 46.1824 71.1809 46.1827C70.2149 46.127 69.2574 46.3799 68.4682 46.8993C68.1728 47.1009 67.9329 47.3642 67.7679 47.6679C67.603 47.9715 67.5176 48.307 67.5187 48.6469V48.7098C67.508 49.0722 67.582 49.4325 67.7357 49.7659C67.9267 50.1059 68.2124 50.3924 68.5631 50.5957C69.0769 50.8888 69.6282 51.1212 70.2043 51.2872C71.0944 51.563 72 51.7938 72.917 51.9787C73.974 52.223 75.0119 52.5338 76.0232 52.909C76.8353 53.2175 77.5904 53.6417 78.2612 54.1663C78.8366 54.6228 79.2992 55.1888 79.6176 55.8259C79.9367 56.543 80.0937 57.3133 80.0788 58.0889C80.0972 58.9954 79.8931 59.8939 79.482 60.7166C79.0966 61.4739 78.5307 62.1402 77.8271 62.6654C77.0872 63.2391 76.2287 63.6669 75.3043 63.9226C74.2656 64.2094 73.1871 64.3535 72.1033 64.3501Z" fill="#FFAF00"/>
<path d="M71.5 37.1797V42.8997" stroke="#FFAF00" stroke-width="3" stroke-miterlimit="10" stroke-linecap="round"/>
<path d="M71.5 64.3496V67.2096" stroke="#FFAF00" stroke-width="3" stroke-miterlimit="10" stroke-linecap="round"/>
</svg>
